<svg xmlns="http://www.w3.org/2000/svg" xmlns:xlink="http://www.w3.org/1999/xlink" contentStyleType="text/css" height="1033px" preserveAspectRatio="none" style="width:1059px;height:1033px;background:#FFFFFF;" version="1.1" viewBox="0 0 1059 1033" width="1059px" zoomAndPan="magnify"><defs/><g><!--cluster Cargo --><g id="cluster_Cargo "><path d="M8.5,6 L61.5,6 A3.75,3.75 0 0 1 64,8.5 L71,28.2969 L1049.5,28.2969 A2.5,2.5 0 0 1 1052,30.7969 L1052,1023.64 A2.5,2.5 0 0 1 1049.5,1026.14 L8.5,1026.14 A2.5,2.5 0 0 1 6,1023.64 L6,8.5 A2.5,2.5 0 0 1 8.5,6 " fill="none" style="stroke:#000000;stroke-width:1.5;"/><line style="stroke:#000000;stroke-width:1.5;" x1="6" x2="71" y1="28.2969" y2="28.2969"/><text fill="#000000" font-family="sans-serif" font-size="14" font-weight="bold" lengthAdjust="spacing" textLength="47" x="10" y="20.9951">Cargo</text></g><!--class Cargo--><g id="elem_Cargo"><rect codeLine="8" fill="#F1F1F1" height="186.6406" id="Cargo" rx="2.5" ry="2.5" style="stroke:#181818;stroke-width:0.5;" width="420" x="390" y="328.38"/><ellipse cx="564.25" cy="348.5128" fill="#ADD1B2" rx="11" ry="11" style="stroke:#181818;stroke-width:1.0;"/><path d="M567.2188,354.1534 Q566.6406,354.4503 566,354.5909 Q565.3594,354.7472 564.6563,354.7472 Q562.1563,354.7472 560.8281,353.1066 Q559.5156,351.4503 559.5156,348.3253 Q559.5156,345.2003 560.8281,343.5441 Q562.1563,341.8878 564.6563,341.8878 Q565.3594,341.8878 566,342.0441 Q566.6563,342.2003 567.2188,342.4972 L567.2188,345.2159 Q566.5938,344.6378 566,344.3722 Q565.4063,344.0909 564.7813,344.0909 Q563.4375,344.0909 562.75,345.1691 Q562.0625,346.2316 562.0625,348.3253 Q562.0625,350.4191 562.75,351.4972 Q563.4375,352.5597 564.7813,352.5597 Q565.4063,352.5597 566,352.2941 Q566.5938,352.0128 567.2188,351.4347 L567.2188,354.1534 Z " fill="#000000"/><text fill="#000000" font-family="sans-serif" font-size="12" font-style="italic" lengthAdjust="spacing" textLength="67" x="582.75" y="344.5187">&#171;Abstract&#187;</text><text fill="#000000" font-family="sans-serif" font-size="14" lengthAdjust="spacing" textLength="41" x="595.75" y="360.3439">Cargo</text><line style="stroke:#181818;stroke-width:0.5;" x1="391" x2="809" y1="368.6456" y2="368.6456"/><rect fill="none" height="6" style="stroke:#C82930;stroke-width:1.0;" width="6" x="398" y="379.2941"/><text fill="#000000" font-family="sans-serif" font-size="14" lengthAdjust="spacing" textLength="100" x="410" y="385.6407">cargoId: String</text><rect fill="none" height="6" style="stroke:#C82930;stroke-width:1.0;" width="6" x="398" y="395.5909"/><text fill="#000000" font-family="sans-serif" font-size="14" lengthAdjust="spacing" textLength="116" x="410" y="401.9376">descricao: String</text><rect fill="none" height="6" style="stroke:#C82930;stroke-width:1.0;" width="6" x="398" y="411.8878"/><text fill="#000000" font-family="sans-serif" font-size="14" lengthAdjust="spacing" textLength="133" x="410" y="418.2345">salarioBase: Salario</text><rect fill="none" height="6" style="stroke:#C82930;stroke-width:1.0;" width="6" x="398" y="428.1847"/><text fill="#000000" font-family="sans-serif" font-size="14" lengthAdjust="spacing" textLength="270" x="410" y="434.5314">historicoSalarial: List&lt;AumentoSalario&gt;</text><rect fill="none" height="6" style="stroke:#C82930;stroke-width:1.0;" width="6" x="398" y="444.4816"/><text fill="#000000" font-family="sans-serif" font-size="14" lengthAdjust="spacing" textLength="187" x="410" y="450.8282">beneficios:List&lt;Beneficio&gt;</text><line style="stroke:#181818;stroke-width:0.5;" x1="391" x2="809" y1="458.13" y2="458.13"/><ellipse cx="401" cy="471.7784" fill="#84BE84" rx="3" ry="3" style="stroke:#038048;stroke-width:1.0;"/><text fill="#000000" font-family="sans-serif" font-size="14" lengthAdjust="spacing" textLength="394" x="410" y="475.1251">ajsutatarSalario(novoSalario: double, motivo: String) : void</text><ellipse cx="401" cy="488.0753" fill="#84BE84" rx="3" ry="3" style="stroke:#038048;stroke-width:1.0;"/><text fill="#000000" font-family="sans-serif" font-size="14" lengthAdjust="spacing" textLength="313" x="410" y="491.422">adicionarBeneficio(beneficio: Beneficio) : void</text><ellipse cx="401" cy="504.3722" fill="#84BE84" rx="3" ry="3" style="stroke:#038048;stroke-width:1.0;"/><text fill="#000000" font-family="sans-serif" font-size="14" lengthAdjust="spacing" textLength="303" x="410" y="507.7189">removeBeneficio(beneficio: Beneficio) : void</text></g><!--class Diretor--><g id="elem_Diretor"><rect codeLine="22" fill="#F1F1F1" height="48" id="Diretor" rx="2.5" ry="2.5" style="stroke:#181818;stroke-width:0.5;" width="79" x="192.5" y="583.17"/><ellipse cx="207.5" cy="599.17" fill="#ADD1B2" rx="11" ry="11" style="stroke:#181818;stroke-width:1.0;"/><path d="M210.4688,604.8106 Q209.8906,605.1075 209.25,605.2481 Q208.6094,605.4044 207.9063,605.4044 Q205.4063,605.4044 204.0781,603.7638 Q202.7656,602.1075 202.7656,598.9825 Q202.7656,595.8575 204.0781,594.2013 Q205.4063,592.545 207.9063,592.545 Q208.6094,592.545 209.25,592.7013 Q209.9063,592.8575 210.4688,593.1544 L210.4688,595.8731 Q209.8438,595.295 209.25,595.0294 Q208.6563,594.7481 208.0313,594.7481 Q206.6875,594.7481 206,595.8263 Q205.3125,596.8888 205.3125,598.9825 Q205.3125,601.0763 206,602.1544 Q206.6875,603.2169 208.0313,603.2169 Q208.6563,603.2169 209.25,602.9513 Q209.8438,602.67 210.4688,602.0919 L210.4688,604.8106 Z " fill="#000000"/><text fill="#000000" font-family="sans-serif" font-size="14" lengthAdjust="spacing" textLength="47" x="221.5" y="604.0167">Diretor</text><line style="stroke:#181818;stroke-width:0.5;" x1="193.5" x2="270.5" y1="615.17" y2="615.17"/><line style="stroke:#181818;stroke-width:0.5;" x1="193.5" x2="270.5" y1="623.17" y2="623.17"/></g><!--class Supervisor--><g id="elem_Supervisor"><rect codeLine="26" fill="#F1F1F1" height="48" id="Supervisor" rx="2.5" ry="2.5" style="stroke:#181818;stroke-width:0.5;" width="105" x="306.5" y="583.17"/><ellipse cx="321.5" cy="599.17" fill="#ADD1B2" rx="11" ry="11" style="stroke:#181818;stroke-width:1.0;"/><path d="M324.4688,604.8106 Q323.8906,605.1075 323.25,605.2481 Q322.6094,605.4044 321.9063,605.4044 Q319.4063,605.4044 318.0781,603.7638 Q316.7656,602.1075 316.7656,598.9825 Q316.7656,595.8575 318.0781,594.2013 Q319.4063,592.545 321.9063,592.545 Q322.6094,592.545 323.25,592.7013 Q323.9063,592.8575 324.4688,593.1544 L324.4688,595.8731 Q323.8438,595.295 323.25,595.0294 Q322.6563,594.7481 322.0313,594.7481 Q320.6875,594.7481 320,595.8263 Q319.3125,596.8888 319.3125,598.9825 Q319.3125,601.0763 320,602.1544 Q320.6875,603.2169 322.0313,603.2169 Q322.6563,603.2169 323.25,602.9513 Q323.8438,602.67 324.4688,602.0919 L324.4688,604.8106 Z " fill="#000000"/><text fill="#000000" font-family="sans-serif" font-size="14" lengthAdjust="spacing" textLength="73" x="335.5" y="604.0167">Supervisor</text><line style="stroke:#181818;stroke-width:0.5;" x1="307.5" x2="410.5" y1="615.17" y2="615.17"/><line style="stroke:#181818;stroke-width:0.5;" x1="307.5" x2="410.5" y1="623.17" y2="623.17"/></g><!--class AuxiliarEscritorio--><g id="elem_AuxiliarEscritorio"><rect codeLine="30" fill="#F1F1F1" height="48" id="AuxiliarEscritorio" rx="2.5" ry="2.5" style="stroke:#181818;stroke-width:0.5;" width="143" x="694.5" y="583.17"/><ellipse cx="709.5" cy="599.17" fill="#ADD1B2" rx="11" ry="11" style="stroke:#181818;stroke-width:1.0;"/><path d="M712.4688,604.8106 Q711.8906,605.1075 711.25,605.2481 Q710.6094,605.4044 709.9063,605.4044 Q707.4063,605.4044 706.0781,603.7638 Q704.7656,602.1075 704.7656,598.9825 Q704.7656,595.8575 706.0781,594.2013 Q707.4063,592.545 709.9063,592.545 Q710.6094,592.545 711.25,592.7013 Q711.9063,592.8575 712.4688,593.1544 L712.4688,595.8731 Q711.8438,595.295 711.25,595.0294 Q710.6563,594.7481 710.0313,594.7481 Q708.6875,594.7481 708,595.8263 Q707.3125,596.8888 707.3125,598.9825 Q707.3125,601.0763 708,602.1544 Q708.6875,603.2169 710.0313,603.2169 Q710.6563,603.2169 711.25,602.9513 Q711.8438,602.67 712.4688,602.0919 L712.4688,604.8106 Z " fill="#000000"/><text fill="#000000" font-family="sans-serif" font-size="14" lengthAdjust="spacing" textLength="111" x="723.5" y="604.0167">AuxiliarEscritorio</text><line style="stroke:#181818;stroke-width:0.5;" x1="695.5" x2="836.5" y1="615.17" y2="615.17"/><line style="stroke:#181818;stroke-width:0.5;" x1="695.5" x2="836.5" y1="623.17" y2="623.17"/></g><!--class Gari--><g id="elem_Gari"><rect codeLine="34" fill="#F1F1F1" height="48" id="Gari" rx="2.5" ry="2.5" style="stroke:#181818;stroke-width:0.5;" width="59" x="872.5" y="583.17"/><ellipse cx="887.5" cy="599.17" fill="#ADD1B2" rx="11" ry="11" style="stroke:#181818;stroke-width:1.0;"/><path d="M890.4688,604.8106 Q889.8906,605.1075 889.25,605.2481 Q888.6094,605.4044 887.9063,605.4044 Q885.4063,605.4044 884.0781,603.7638 Q882.7656,602.1075 882.7656,598.9825 Q882.7656,595.8575 884.0781,594.2013 Q885.4063,592.545 887.9063,592.545 Q888.6094,592.545 889.25,592.7013 Q889.9063,592.8575 890.4688,593.1544 L890.4688,595.8731 Q889.8438,595.295 889.25,595.0294 Q888.6563,594.7481 888.0313,594.7481 Q886.6875,594.7481 886,595.8263 Q885.3125,596.8888 885.3125,598.9825 Q885.3125,601.0763 886,602.1544 Q886.6875,603.2169 888.0313,603.2169 Q888.6563,603.2169 889.25,602.9513 Q889.8438,602.67 890.4688,602.0919 L890.4688,604.8106 Z " fill="#000000"/><text fill="#000000" font-family="sans-serif" font-size="14" lengthAdjust="spacing" textLength="27" x="901.5" y="604.0167">Gari</text><line style="stroke:#181818;stroke-width:0.5;" x1="873.5" x2="930.5" y1="615.17" y2="615.17"/><line style="stroke:#181818;stroke-width:0.5;" x1="873.5" x2="930.5" y1="623.17" y2="623.17"/></g><!--class Coletor--><g id="elem_Coletor"><rect codeLine="38" fill="#F1F1F1" height="48" id="Coletor" rx="2.5" ry="2.5" style="stroke:#181818;stroke-width:0.5;" width="82" x="577" y="583.17"/><ellipse cx="592" cy="599.17" fill="#ADD1B2" rx="11" ry="11" style="stroke:#181818;stroke-width:1.0;"/><path d="M594.9688,604.8106 Q594.3906,605.1075 593.75,605.2481 Q593.1094,605.4044 592.4063,605.4044 Q589.9063,605.4044 588.5781,603.7638 Q587.2656,602.1075 587.2656,598.9825 Q587.2656,595.8575 588.5781,594.2013 Q589.9063,592.545 592.4063,592.545 Q593.1094,592.545 593.75,592.7013 Q594.4063,592.8575 594.9688,593.1544 L594.9688,595.8731 Q594.3438,595.295 593.75,595.0294 Q593.1563,594.7481 592.5313,594.7481 Q591.1875,594.7481 590.5,595.8263 Q589.8125,596.8888 589.8125,598.9825 Q589.8125,601.0763 590.5,602.1544 Q591.1875,603.2169 592.5313,603.2169 Q593.1563,603.2169 593.75,602.9513 Q594.3438,602.67 594.9688,602.0919 L594.9688,604.8106 Z " fill="#000000"/><text fill="#000000" font-family="sans-serif" font-size="14" lengthAdjust="spacing" textLength="50" x="606" y="604.0167">Coletor</text><line style="stroke:#181818;stroke-width:0.5;" x1="578" x2="658" y1="615.17" y2="615.17"/><line style="stroke:#181818;stroke-width:0.5;" x1="578" x2="658" y1="623.17" y2="623.17"/></g><!--class Motorista--><g id="elem_Motorista"><rect codeLine="42" fill="#F1F1F1" height="48" id="Motorista" rx="2.5" ry="2.5" style="stroke:#181818;stroke-width:0.5;" width="96" x="446" y="583.17"/><ellipse cx="461" cy="599.17" fill="#ADD1B2" rx="11" ry="11" style="stroke:#181818;stroke-width:1.0;"/><path d="M463.9688,604.8106 Q463.3906,605.1075 462.75,605.2481 Q462.1094,605.4044 461.4063,605.4044 Q458.9063,605.4044 457.5781,603.7638 Q456.2656,602.1075 456.2656,598.9825 Q456.2656,595.8575 457.5781,594.2013 Q458.9063,592.545 461.4063,592.545 Q462.1094,592.545 462.75,592.7013 Q463.4063,592.8575 463.9688,593.1544 L463.9688,595.8731 Q463.3438,595.295 462.75,595.0294 Q462.1563,594.7481 461.5313,594.7481 Q460.1875,594.7481 459.5,595.8263 Q458.8125,596.8888 458.8125,598.9825 Q458.8125,601.0763 459.5,602.1544 Q460.1875,603.2169 461.5313,603.2169 Q462.1563,603.2169 462.75,602.9513 Q463.3438,602.67 463.9688,602.0919 L463.9688,604.8106 Z " fill="#000000"/><text fill="#000000" font-family="sans-serif" font-size="14" lengthAdjust="spacing" textLength="64" x="475" y="604.0167">Motorista</text><line style="stroke:#181818;stroke-width:0.5;" x1="447" x2="541" y1="615.17" y2="615.17"/><line style="stroke:#181818;stroke-width:0.5;" x1="447" x2="541" y1="623.17" y2="623.17"/></g><!--class Fiscal--><g id="elem_Fiscal"><rect codeLine="47" fill="#F1F1F1" height="48" id="Fiscal" rx="2.5" ry="2.5" style="stroke:#181818;stroke-width:0.5;" width="70" x="966" y="583.17"/><ellipse cx="981" cy="599.17" fill="#ADD1B2" rx="11" ry="11" style="stroke:#181818;stroke-width:1.0;"/><path d="M983.9688,604.8106 Q983.3906,605.1075 982.75,605.2481 Q982.1094,605.4044 981.4063,605.4044 Q978.9063,605.4044 977.5781,603.7638 Q976.2656,602.1075 976.2656,598.9825 Q976.2656,595.8575 977.5781,594.2013 Q978.9063,592.545 981.4063,592.545 Q982.1094,592.545 982.75,592.7013 Q983.4063,592.8575 983.9688,593.1544 L983.9688,595.8731 Q983.3438,595.295 982.75,595.0294 Q982.1563,594.7481 981.5313,594.7481 Q980.1875,594.7481 979.5,595.8263 Q978.8125,596.8888 978.8125,598.9825 Q978.8125,601.0763 979.5,602.1544 Q980.1875,603.2169 981.5313,603.2169 Q982.1563,603.2169 982.75,602.9513 Q983.3438,602.67 983.9688,602.0919 L983.9688,604.8106 Z " fill="#000000"/><text fill="#000000" font-family="sans-serif" font-size="14" lengthAdjust="spacing" textLength="38" x="995" y="604.0167">Fiscal</text><line style="stroke:#181818;stroke-width:0.5;" x1="967" x2="1035" y1="615.17" y2="615.17"/><line style="stroke:#181818;stroke-width:0.5;" x1="967" x2="1035" y1="623.17" y2="623.17"/></g><!--class Salario--><g id="elem_Salario"><rect codeLine="52" fill="#F1F1F1" height="202.9375" id="Salario" rx="2.5" ry="2.5" style="stroke:#181818;stroke-width:0.5;" width="315" x="40.5" y="320.23"/><ellipse cx="151.25" cy="340.3628" fill="#ADD1B2" rx="11" ry="11" style="stroke:#181818;stroke-width:1.0;"/><path d="M154.2188,346.0034 Q153.6406,346.3003 153,346.4409 Q152.3594,346.5972 151.6563,346.5972 Q149.1563,346.5972 147.8281,344.9566 Q146.5156,343.3003 146.5156,340.1753 Q146.5156,337.0503 147.8281,335.3941 Q149.1563,333.7378 151.6563,333.7378 Q152.3594,333.7378 153,333.8941 Q153.6563,334.0503 154.2188,334.3472 L154.2188,337.0659 Q153.5938,336.4878 153,336.2222 Q152.4063,335.9409 151.7813,335.9409 Q150.4375,335.9409 149.75,337.0191 Q149.0625,338.0816 149.0625,340.1753 Q149.0625,342.2691 149.75,343.3472 Q150.4375,344.4097 151.7813,344.4097 Q152.4063,344.4097 153,344.1441 Q153.5938,343.8628 154.2188,343.2847 L154.2188,346.0034 Z " fill="#000000"/><text fill="#000000" font-family="sans-serif" font-size="12" font-style="italic" lengthAdjust="spacing" textLength="89" x="169.75" y="336.3687">&#171;ValueObject&#187;</text><text fill="#000000" font-family="sans-serif" font-size="14" lengthAdjust="spacing" textLength="45" x="191.75" y="352.1939">Salario</text><line style="stroke:#181818;stroke-width:0.5;" x1="41.5" x2="354.5" y1="360.4956" y2="360.4956"/><rect fill="none" height="6" style="stroke:#C82930;stroke-width:1.0;" width="6" x="48.5" y="371.1441"/><text fill="#000000" font-family="sans-serif" font-size="14" lengthAdjust="spacing" textLength="121" x="60.5" y="377.4907">salarioBase: Float</text><rect fill="none" height="6" style="stroke:#C82930;stroke-width:1.0;" width="6" x="48.5" y="387.4409"/><text fill="#000000" font-family="sans-serif" font-size="14" lengthAdjust="spacing" textLength="214" x="60.5" y="393.7876">descontos: &lt;DescontoSalrial&gt;</text><rect fill="none" height="6" style="stroke:#C82930;stroke-width:1.0;" width="6" x="48.5" y="403.7378"/><text fill="#000000" font-family="sans-serif" font-size="14" lengthAdjust="spacing" textLength="204" x="60.5" y="410.0845">abonos: List &lt;AbonoSalarial&gt;</text><line style="stroke:#181818;stroke-width:0.5;" x1="41.5" x2="354.5" y1="417.3863" y2="417.3863"/><ellipse cx="51.5" cy="431.0347" fill="#84BE84" rx="3" ry="3" style="stroke:#038048;stroke-width:1.0;"/><text fill="#000000" font-family="sans-serif" font-size="14" lengthAdjust="spacing" textLength="121" x="60.5" y="434.3814">aumentarSalario()</text><ellipse cx="51.5" cy="447.3316" fill="#84BE84" rx="3" ry="3" style="stroke:#038048;stroke-width:1.0;"/><text fill="#000000" font-family="sans-serif" font-size="14" lengthAdjust="spacing" textLength="122" x="60.5" y="450.6782">supenderSalario()</text><ellipse cx="51.5" cy="463.6284" fill="#84BE84" rx="3" ry="3" style="stroke:#038048;stroke-width:1.0;"/><text fill="#000000" font-family="sans-serif" font-size="14" lengthAdjust="spacing" textLength="156" x="60.5" y="466.9751">calcularSalarioLiquido()</text><ellipse cx="51.5" cy="479.9253" fill="#84BE84" rx="3" ry="3" style="stroke:#038048;stroke-width:1.0;"/><text fill="#000000" font-family="sans-serif" font-size="14" lengthAdjust="spacing" textLength="145" x="60.5" y="483.272">calcularSalarioBruto()</text><ellipse cx="51.5" cy="496.2222" fill="#84BE84" rx="3" ry="3" style="stroke:#038048;stroke-width:1.0;"/><text fill="#000000" font-family="sans-serif" font-size="14" lengthAdjust="spacing" textLength="174" x="60.5" y="499.5689">getSalarioBase() : double</text><ellipse cx="51.5" cy="512.5191" fill="#84BE84" rx="3" ry="3" style="stroke:#038048;stroke-width:1.0;"/><text fill="#000000" font-family="sans-serif" font-size="14" lengthAdjust="spacing" textLength="289" x="60.5" y="515.8657">setSalarioBase(salarioBase: double) : void</text></g><!--class AjusteSalarial--><g id="elem_AjusteSalarial"><rect codeLine="66" fill="#F1F1F1" height="219.2344" id="AjusteSalarial" rx="2.5" ry="2.5" style="stroke:#181818;stroke-width:0.5;" width="251" x="273.5" y="41"/><ellipse cx="343.75" cy="61.1328" fill="#ADD1B2" rx="11" ry="11" style="stroke:#181818;stroke-width:1.0;"/><path d="M346.7188,66.7734 Q346.1406,67.0703 345.5,67.2109 Q344.8594,67.3672 344.1563,67.3672 Q341.6563,67.3672 340.3281,65.7266 Q339.0156,64.0703 339.0156,60.9453 Q339.0156,57.8203 340.3281,56.1641 Q341.6563,54.5078 344.1563,54.5078 Q344.8594,54.5078 345.5,54.6641 Q346.1563,54.8203 346.7188,55.1172 L346.7188,57.8359 Q346.0938,57.2578 345.5,56.9922 Q344.9063,56.7109 344.2813,56.7109 Q342.9375,56.7109 342.25,57.7891 Q341.5625,58.8516 341.5625,60.9453 Q341.5625,63.0391 342.25,64.1172 Q342.9375,65.1797 344.2813,65.1797 Q344.9063,65.1797 345.5,64.9141 Q346.0938,64.6328 346.7188,64.0547 L346.7188,66.7734 Z " fill="#000000"/><text fill="#000000" font-family="sans-serif" font-size="12" font-style="italic" lengthAdjust="spacing" textLength="106" x="362.25" y="57.1387">&#171;class #FF6347&#187;</text><text fill="#000000" font-family="sans-serif" font-size="14" lengthAdjust="spacing" textLength="90" x="370.25" y="72.9639">AjusteSalarial</text><line style="stroke:#181818;stroke-width:0.5;" x1="274.5" x2="523.5" y1="81.2656" y2="81.2656"/><polygon fill="none" points="284.5,89.9141,288.5,93.9141,284.5,97.9141,280.5,93.9141" style="stroke:#B38D22;stroke-width:1.0;"/><text fill="#000000" font-family="sans-serif" font-size="14" lengthAdjust="spacing" textLength="99" x="293.5" y="98.2607">entityId: String</text><polygon fill="none" points="284.5,106.2109,288.5,110.2109,284.5,114.2109,280.5,110.2109" style="stroke:#B38D22;stroke-width:1.0;"/><text fill="#000000" font-family="sans-serif" font-size="14" lengthAdjust="spacing" textLength="184" x="293.5" y="114.5576">timestamp: LocalDateTime</text><polygon fill="none" points="284.5,122.5078,288.5,126.5078,284.5,130.5078,280.5,126.5078" style="stroke:#B38D22;stroke-width:1.0;"/><text fill="#000000" font-family="sans-serif" font-size="14" lengthAdjust="spacing" textLength="155" x="293.5" y="130.8545">salarioAnterior: double</text><polygon fill="none" points="284.5,138.8047,288.5,142.8047,284.5,146.8047,280.5,142.8047" style="stroke:#B38D22;stroke-width:1.0;"/><text fill="#000000" font-family="sans-serif" font-size="14" lengthAdjust="spacing" textLength="136" x="293.5" y="147.1514">salarioNovo: double</text><polygon fill="none" points="284.5,155.1016,288.5,159.1016,284.5,163.1016,280.5,159.1016" style="stroke:#B38D22;stroke-width:1.0;"/><text fill="#000000" font-family="sans-serif" font-size="14" lengthAdjust="spacing" textLength="95" x="293.5" y="163.4482">motivo: String</text><line style="stroke:#181818;stroke-width:0.5;" x1="274.5" x2="523.5" y1="170.75" y2="170.75"/><ellipse cx="284.5" cy="184.3984" fill="#84BE84" rx="3" ry="3" style="stroke:#038048;stroke-width:1.0;"/><text fill="#000000" font-family="sans-serif" font-size="14" lengthAdjust="spacing" textLength="136" x="293.5" y="187.7451">getEntityId() : String</text><ellipse cx="284.5" cy="200.6953" fill="#84BE84" rx="3" ry="3" style="stroke:#038048;stroke-width:1.0;"/><text fill="#000000" font-family="sans-serif" font-size="14" lengthAdjust="spacing" textLength="225" x="293.5" y="204.042">getTimestamp() : LocalDateTime</text><ellipse cx="284.5" cy="216.9922" fill="#84BE84" rx="3" ry="3" style="stroke:#038048;stroke-width:1.0;"/><text fill="#000000" font-family="sans-serif" font-size="14" lengthAdjust="spacing" textLength="193" x="293.5" y="220.3389">getSalarioAnterior() : double</text><ellipse cx="284.5" cy="233.2891" fill="#84BE84" rx="3" ry="3" style="stroke:#038048;stroke-width:1.0;"/><text fill="#000000" font-family="sans-serif" font-size="14" lengthAdjust="spacing" textLength="174" x="293.5" y="236.6357">getSalarioNovo() : double</text><ellipse cx="284.5" cy="249.5859" fill="#84BE84" rx="3" ry="3" style="stroke:#038048;stroke-width:1.0;"/><text fill="#000000" font-family="sans-serif" font-size="14" lengthAdjust="spacing" textLength="131" x="293.5" y="252.9326">getMotivo() : String</text></g><!--class Beneficio--><g id="elem_Beneficio"><rect codeLine="80" fill="#F1F1F1" height="96.8906" id="Beneficio" rx="2.5" ry="2.5" style="stroke:#181818;stroke-width:0.5;" width="166" x="523" y="896.95"/><ellipse cx="569.75" cy="912.95" fill="#B4A7E5" rx="11" ry="11" style="stroke:#181818;stroke-width:1.0;"/><path d="M565.6719,908.7156 L565.6719,906.5594 L573.0625,906.5594 L573.0625,908.7156 L570.5938,908.7156 L570.5938,916.7938 L573.0625,916.7938 L573.0625,918.95 L565.6719,918.95 L565.6719,916.7938 L568.1406,916.7938 L568.1406,908.7156 L565.6719,908.7156 Z " fill="#000000"/><text fill="#000000" font-family="sans-serif" font-size="14" font-style="italic" lengthAdjust="spacing" textLength="64" x="590.25" y="917.7967">Beneficio</text><line style="stroke:#181818;stroke-width:0.5;" x1="524" x2="688" y1="928.95" y2="928.95"/><line style="stroke:#181818;stroke-width:0.5;" x1="524" x2="688" y1="936.95" y2="936.95"/><ellipse cx="534" cy="950.5984" fill="#84BE84" rx="3" ry="3" style="stroke:#038048;stroke-width:1.0;"/><text fill="#000000" font-family="sans-serif" font-size="14" lengthAdjust="spacing" textLength="139" x="543" y="953.9451">validarElegibilidade()</text><ellipse cx="534" cy="966.8953" fill="#84BE84" rx="3" ry="3" style="stroke:#038048;stroke-width:1.0;"/><text fill="#000000" font-family="sans-serif" font-size="14" lengthAdjust="spacing" textLength="127" x="543" y="970.242">bloquerBeneficio()</text><ellipse cx="534" cy="983.1922" fill="#84BE84" rx="3" ry="3" style="stroke:#038048;stroke-width:1.0;"/><text fill="#000000" font-family="sans-serif" font-size="14" lengthAdjust="spacing" textLength="140" x="543" y="986.5389">concederBeneficio()</text></g><!--class CestaBasica--><g id="elem_CestaBasica"><rect codeLine="86" fill="#F1F1F1" height="129.4844" id="CestaBasica" rx="2.5" ry="2.5" style="stroke:#181818;stroke-width:0.5;" width="276" x="760" y="691.17"/><ellipse cx="851.25" cy="707.17" fill="#ADD1B2" rx="11" ry="11" style="stroke:#181818;stroke-width:1.0;"/><path d="M854.2188,712.8106 Q853.6406,713.1075 853,713.2481 Q852.3594,713.4044 851.6563,713.4044 Q849.1563,713.4044 847.8281,711.7638 Q846.5156,710.1075 846.5156,706.9825 Q846.5156,703.8575 847.8281,702.2013 Q849.1563,700.545 851.6563,700.545 Q852.3594,700.545 853,700.7013 Q853.6563,700.8575 854.2188,701.1544 L854.2188,703.8731 Q853.5938,703.295 853,703.0294 Q852.4063,702.7481 851.7813,702.7481 Q850.4375,702.7481 849.75,703.8263 Q849.0625,704.8888 849.0625,706.9825 Q849.0625,709.0763 849.75,710.1544 Q850.4375,711.2169 851.7813,711.2169 Q852.4063,711.2169 853,710.9513 Q853.5938,710.67 854.2188,710.0919 L854.2188,712.8106 Z " fill="#000000"/><text fill="#000000" font-family="sans-serif" font-size="14" lengthAdjust="spacing" textLength="85" x="871.75" y="712.0167">CestaBasica</text><line style="stroke:#181818;stroke-width:0.5;" x1="761" x2="1035" y1="723.17" y2="723.17"/><rect fill="none" height="6" style="stroke:#C82930;stroke-width:1.0;" width="6" x="768" y="733.8184"/><text fill="#000000" font-family="sans-serif" font-size="14" lengthAdjust="spacing" textLength="155" x="780" y="740.1651">List&lt;ItemCesta&gt; itens</text><line style="stroke:#181818;stroke-width:0.5;" x1="761" x2="1035" y1="747.4669" y2="747.4669"/><ellipse cx="771" cy="761.1153" fill="#84BE84" rx="3" ry="3" style="stroke:#038048;stroke-width:1.0;"/><text fill="#000000" font-family="sans-serif" font-size="14" lengthAdjust="spacing" textLength="250" x="780" y="764.462">CestaBasica(List&lt;ItemCesta&gt; itens)</text><ellipse cx="771" cy="777.4122" fill="#84BE84" rx="3" ry="3" style="stroke:#038048;stroke-width:1.0;"/><text fill="#000000" font-family="sans-serif" font-size="14" lengthAdjust="spacing" textLength="188" x="780" y="780.7589">List&lt;ItemCesta&gt; getItens()</text><ellipse cx="771" cy="793.7091" fill="#84BE84" rx="3" ry="3" style="stroke:#038048;stroke-width:1.0;"/><text fill="#000000" font-family="sans-serif" font-size="14" lengthAdjust="spacing" textLength="238" x="780" y="797.0557">void adicionarItem(ItemCesta item)</text><ellipse cx="771" cy="810.0059" fill="#84BE84" rx="3" ry="3" style="stroke:#038048;stroke-width:1.0;"/><text fill="#000000" font-family="sans-serif" font-size="14" lengthAdjust="spacing" textLength="233" x="780" y="813.3526">void removerItem(ItemCesta item)</text></g><!--class ItemCesta--><g id="elem_ItemCesta"><rect codeLine="95" fill="#F1F1F1" height="129.4844" id="ItemCesta" rx="2.5" ry="2.5" style="stroke:#181818;stroke-width:0.5;" width="290" x="746" y="880.66"/><ellipse cx="851.75" cy="896.66" fill="#ADD1B2" rx="11" ry="11" style="stroke:#181818;stroke-width:1.0;"/><path d="M854.7188,902.3006 Q854.1406,902.5975 853.5,902.7381 Q852.8594,902.8944 852.1563,902.8944 Q849.6563,902.8944 848.3281,901.2538 Q847.0156,899.5975 847.0156,896.4725 Q847.0156,893.3475 848.3281,891.6913 Q849.6563,890.035 852.1563,890.035 Q852.8594,890.035 853.5,890.1913 Q854.1563,890.3475 854.7188,890.6444 L854.7188,893.3631 Q854.0938,892.785 853.5,892.5194 Q852.9063,892.2381 852.2813,892.2381 Q850.9375,892.2381 850.25,893.3163 Q849.5625,894.3788 849.5625,896.4725 Q849.5625,898.5663 850.25,899.6444 Q850.9375,900.7069 852.2813,900.7069 Q852.9063,900.7069 853.5,900.4413 Q854.0938,900.16 854.7188,899.5819 L854.7188,902.3006 Z " fill="#000000"/><text fill="#000000" font-family="sans-serif" font-size="14" lengthAdjust="spacing" textLength="70" x="872.25" y="901.5067">ItemCesta</text><line style="stroke:#181818;stroke-width:0.5;" x1="747" x2="1035" y1="912.66" y2="912.66"/><rect fill="none" height="6" style="stroke:#C82930;stroke-width:1.0;" width="6" x="754" y="923.3084"/><text fill="#000000" font-family="sans-serif" font-size="14" lengthAdjust="spacing" textLength="84" x="766" y="929.6551">String nome</text><rect fill="none" height="6" style="stroke:#C82930;stroke-width:1.0;" width="6" x="754" y="939.6053"/><text fill="#000000" font-family="sans-serif" font-size="14" lengthAdjust="spacing" textLength="92" x="766" y="945.952">double preco</text><line style="stroke:#181818;stroke-width:0.5;" x1="747" x2="1035" y1="953.2538" y2="953.2538"/><ellipse cx="757" cy="966.9022" fill="#84BE84" rx="3" ry="3" style="stroke:#038048;stroke-width:1.0;"/><text fill="#000000" font-family="sans-serif" font-size="14" lengthAdjust="spacing" textLength="264" x="766" y="970.2489">ItemCesta(String nome, double preco)</text><ellipse cx="757" cy="983.1991" fill="#84BE84" rx="3" ry="3" style="stroke:#038048;stroke-width:1.0;"/><text fill="#000000" font-family="sans-serif" font-size="14" lengthAdjust="spacing" textLength="118" x="766" y="986.5457">String getNome()</text><ellipse cx="757" cy="999.4959" fill="#84BE84" rx="3" ry="3" style="stroke:#038048;stroke-width:1.0;"/><text fill="#000000" font-family="sans-serif" font-size="14" lengthAdjust="spacing" textLength="125" x="766" y="1002.8426">double getPreco()</text></g><!--class ValeTransporte--><g id="elem_ValeTransporte"><rect codeLine="104" fill="#F1F1F1" height="129.4844" id="ValeTransporte" rx="2.5" ry="2.5" style="stroke:#181818;stroke-width:0.5;" width="430" x="22" y="691.17"/><ellipse cx="180.25" cy="707.17" fill="#ADD1B2" rx="11" ry="11" style="stroke:#181818;stroke-width:1.0;"/><path d="M183.2188,712.8106 Q182.6406,713.1075 182,713.2481 Q181.3594,713.4044 180.6563,713.4044 Q178.1563,713.4044 176.8281,711.7638 Q175.5156,710.1075 175.5156,706.9825 Q175.5156,703.8575 176.8281,702.2013 Q178.1563,700.545 180.6563,700.545 Q181.3594,700.545 182,700.7013 Q182.6563,700.8575 183.2188,701.1544 L183.2188,703.8731 Q182.5938,703.295 182,703.0294 Q181.4063,702.7481 180.7813,702.7481 Q179.4375,702.7481 178.75,703.8263 Q178.0625,704.8888 178.0625,706.9825 Q178.0625,709.0763 178.75,710.1544 Q179.4375,711.2169 180.7813,711.2169 Q181.4063,711.2169 182,710.9513 Q182.5938,710.67 183.2188,710.0919 L183.2188,712.8106 Z " fill="#000000"/><text fill="#000000" font-family="sans-serif" font-size="14" lengthAdjust="spacing" textLength="105" x="200.75" y="712.0167">ValeTransporte</text><line style="stroke:#181818;stroke-width:0.5;" x1="23" x2="451" y1="723.17" y2="723.17"/><rect fill="none" height="6" style="stroke:#C82930;stroke-width:1.0;" width="6" x="30" y="733.8184"/><text fill="#000000" font-family="sans-serif" font-size="14" lengthAdjust="spacing" textLength="135" x="42" y="740.1651">boolean possuiVale</text><rect fill="none" height="6" style="stroke:#C82930;stroke-width:1.0;" width="6" x="30" y="750.1153"/><text fill="#000000" font-family="sans-serif" font-size="14" lengthAdjust="spacing" textLength="146" x="42" y="756.462">String tipoTransporte</text><line style="stroke:#181818;stroke-width:0.5;" x1="23" x2="451" y1="763.7638" y2="763.7638"/><ellipse cx="33" cy="777.4122" fill="#84BE84" rx="3" ry="3" style="stroke:#038048;stroke-width:1.0;"/><text fill="#000000" font-family="sans-serif" font-size="14" lengthAdjust="spacing" textLength="404" x="42" y="780.7589">ValeTransporte(boolean possuiVale, String tipoTransporte)</text><ellipse cx="33" cy="793.7091" fill="#84BE84" rx="3" ry="3" style="stroke:#038048;stroke-width:1.0;"/><text fill="#000000" font-family="sans-serif" font-size="14" lengthAdjust="spacing" textLength="156" x="42" y="797.0557">boolean isPossuiVale()</text><ellipse cx="33" cy="810.0059" fill="#84BE84" rx="3" ry="3" style="stroke:#038048;stroke-width:1.0;"/><text fill="#000000" font-family="sans-serif" font-size="14" lengthAdjust="spacing" textLength="183" x="42" y="813.3526">String getTipoTransporte()</text></g><!--class ValeAlimentacao--><g id="elem_ValeAlimentacao"><rect codeLine="113" fill="#F1F1F1" height="96.8906" id="ValeAlimentacao" rx="2.5" ry="2.5" style="stroke:#181818;stroke-width:0.5;" width="238" x="487" y="707.47"/><ellipse cx="545.25" cy="723.47" fill="#ADD1B2" rx="11" ry="11" style="stroke:#181818;stroke-width:1.0;"/><path d="M548.2188,729.1106 Q547.6406,729.4075 547,729.5481 Q546.3594,729.7044 545.6563,729.7044 Q543.1563,729.7044 541.8281,728.0638 Q540.5156,726.4075 540.5156,723.2825 Q540.5156,720.1575 541.8281,718.5013 Q543.1563,716.845 545.6563,716.845 Q546.3594,716.845 547,717.0013 Q547.6563,717.1575 548.2188,717.4544 L548.2188,720.1731 Q547.5938,719.595 547,719.3294 Q546.4063,719.0481 545.7813,719.0481 Q544.4375,719.0481 543.75,720.1263 Q543.0625,721.1888 543.0625,723.2825 Q543.0625,725.3763 543.75,726.4544 Q544.4375,727.5169 545.7813,727.5169 Q546.4063,727.5169 547,727.2513 Q547.5938,726.97 548.2188,726.3919 L548.2188,729.1106 Z " fill="#000000"/><text fill="#000000" font-family="sans-serif" font-size="14" lengthAdjust="spacing" textLength="113" x="565.75" y="728.3167">ValeAlimentacao</text><line style="stroke:#181818;stroke-width:0.5;" x1="488" x2="724" y1="739.47" y2="739.47"/><rect fill="none" height="6" style="stroke:#C82930;stroke-width:1.0;" width="6" x="495" y="750.1184"/><text fill="#000000" font-family="sans-serif" font-size="14" lengthAdjust="spacing" textLength="89" x="507" y="756.4651">double saldo</text><line style="stroke:#181818;stroke-width:0.5;" x1="488" x2="724" y1="763.7669" y2="763.7669"/><ellipse cx="498" cy="777.4153" fill="#84BE84" rx="3" ry="3" style="stroke:#038048;stroke-width:1.0;"/><text fill="#000000" font-family="sans-serif" font-size="14" lengthAdjust="spacing" textLength="212" x="507" y="780.762">ValeAlimentacao(double saldo)</text><ellipse cx="498" cy="793.7122" fill="#84BE84" rx="3" ry="3" style="stroke:#038048;stroke-width:1.0;"/><text fill="#000000" font-family="sans-serif" font-size="14" lengthAdjust="spacing" textLength="123" x="507" y="797.0589">double getSaldo()</text></g><!--reverse link Cargo to Diretor--><g id="link_Cargo_Diretor"><path d="M397.7307,523.5406 C344.0707,550.2906 306.77,568.9 271.86,586.3 " fill="none" id="Cargo-backto-Diretor" style="stroke:#181818;stroke-width:1.0;"/><polygon fill="none" points="413.84,515.51,395.0538,518.1709,400.4076,528.9104,413.84,515.51" style="stroke:#181818;stroke-width:1.0;"/></g><!--reverse link Cargo to AuxiliarEscritorio--><g id="link_Cargo_AuxiliarEscritorio"><path d="M696.0457,528.8583 C718.7257,553.9283 729.23,565.53 744.94,582.9 " fill="none" id="Cargo-backto-AuxiliarEscritorio" style="stroke:#181818;stroke-width:1.0;"/><polygon fill="none" points="683.97,515.51,691.5963,532.8835,700.4952,524.833,683.97,515.51" style="stroke:#181818;stroke-width:1.0;"/></g><!--reverse link Cargo to Gari--><g id="link_Cargo_Gari"><path d="M768.1539,524.8553 C813.6539,552.4953 843.55,570.66 872.1,588.01 " fill="none" id="Cargo-backto-Gari" style="stroke:#181818;stroke-width:1.0;"/><polygon fill="none" points="752.77,515.51,765.0388,529.9833,771.269,519.7273,752.77,515.51" style="stroke:#181818;stroke-width:1.0;"/></g><!--reverse link Cargo to Coletor--><g id="link_Cargo_Coletor"><path d="M610.8607,533.4247 C613.3107,558.4947 614.01,565.53 615.72,582.9 " fill="none" id="Cargo-backto-Coletor" style="stroke:#181818;stroke-width:1.0;"/><polygon fill="none" points="609.11,515.51,604.8892,534.0082,616.8323,532.8411,609.11,515.51" style="stroke:#181818;stroke-width:1.0;"/></g><!--reverse link Cargo to Motorista--><g id="link_Cargo_Motorista"><path d="M537.3773,531.0969 C522.8973,556.1669 517.48,565.53 507.45,582.9 " fill="none" id="Cargo-backto-Motorista" style="stroke:#181818;stroke-width:1.0;"/><polygon fill="none" points="546.38,515.51,532.1817,528.096,542.5729,534.0978,546.38,515.51" style="stroke:#181818;stroke-width:1.0;"/></g><!--reverse link Cargo to Fiscal--><g id="link_Cargo_Fiscal"><path d="M819.2181,522.9989 C881.9681,551.7089 928.03,572.79 965.58,589.97 " fill="none" id="Cargo-backto-Fiscal" style="stroke:#181818;stroke-width:1.0;"/><polygon fill="none" points="802.85,515.51,816.7218,528.455,821.7144,517.5429,802.85,515.51" style="stroke:#181818;stroke-width:1.0;"/></g><!--reverse link Salario to Cargo--><g id="link_Salario_Cargo"><path codeLine="123" d="M361.82,421.7 C373.1,421.7 378.39,421.7 389.68,421.7 " fill="none" id="Salario-backto-Cargo" style="stroke:#181818;stroke-width:1.0;"/><polygon fill="#181818" points="355.82,421.7,364.82,425.7,360.82,421.7,364.82,417.7,355.82,421.7" style="stroke:#181818;stroke-width:1.0;"/></g><!--link AjusteSalarial to Cargo--><g id="link_AjusteSalarial_Cargo"><path codeLine="124" d="M480.46,260.68 C497.22,283.11 507.5284,296.9162 523.7984,318.6962 " fill="none" id="AjusteSalarial-to-Cargo" style="stroke:#181818;stroke-width:1.0;"/><polygon fill="none" points="530.98,328.31,530.5938,321.1092,523.7984,318.6962,524.1846,325.897,530.98,328.31" style="stroke:#181818;stroke-width:1.0;"/></g><!--reverse link Cargo to ValeTransporte--><g id="link_Cargo_ValeTransporte"><path codeLine="125" d="M382.0312,519.8329 C375.2412,522.4829 379.67,520.7 373,523.17 C286.8,555.17 229.79,509.32 175,583.17 C151.39,614.99 165.62,656.69 186.36,691.02 " fill="none" id="Cargo-backto-ValeTransporte" style="stroke:#181818;stroke-width:1.0;"/><polygon fill="none" points="393.21,515.47,386.1663,513.9252,382.0312,519.8329,389.0749,521.3777,393.21,515.47" style="stroke:#181818;stroke-width:1.0;"/></g><!--reverse link Cargo to Supervisor--><g id="link_Cargo_Supervisor"><path codeLine="126" d="M463.7681,526.4134 C430.8381,551.4834 412.38,565.53 389.57,582.9 " fill="none" id="Cargo-backto-Supervisor" style="stroke:#181818;stroke-width:1.0;"/><polygon fill="none" points="478.09,515.51,460.1337,521.6395,467.4026,531.1874,478.09,515.51" style="stroke:#181818;stroke-width:1.0;"/></g><!--link AjusteSalarial to Salario--><g id="link_AjusteSalarial_Salario"><path codeLine="127" d="M317.54,260.68 C302.95,280.2 287.82,300.46 273.41,319.74 " fill="none" id="AjusteSalarial-Salario" style="stroke:#181818;stroke-width:1.0;"/></g><!--link CestaBasica to Beneficio--><g id="link_CestaBasica_Beneficio"><path codeLine="129" d="M798.33,820.91 C759.67,845.73 721.2186,870.4178 685.3886,893.4278 " fill="none" id="CestaBasica-to-Beneficio" style="stroke:#181818;stroke-width:1.0;stroke-dasharray:7.0,7.0;"/><polygon fill="#181818" points="680.34,896.67,690.0743,895.1724,684.5472,893.9682,685.7514,888.441,680.34,896.67" style="stroke:#181818;stroke-width:1.0;"/></g><!--link ValeTransporte to Beneficio--><g id="link_ValeTransporte_Beneficio"><path codeLine="130" d="M363.21,821.04 C415.91,847.82 470.3311,875.4618 517.3811,899.3718 " fill="none" id="ValeTransporte-to-Beneficio" style="stroke:#181818;stroke-width:1.0;stroke-dasharray:7.0,7.0;"/><polygon fill="#181818" points="522.73,902.09,516.5187,894.4467,518.2725,899.8248,512.8944,901.5786,522.73,902.09" style="stroke:#181818;stroke-width:1.0;"/></g><!--link ValeAlimentacao to Beneficio--><g id="link_ValeAlimentacao_Beneficio"><path codeLine="131" d="M606,804.71 C606,832.92 606,862.5 606,890.69 " fill="none" id="ValeAlimentacao-to-Beneficio" style="stroke:#181818;stroke-width:1.0;stroke-dasharray:7.0,7.0;"/><polygon fill="#181818" points="606,896.69,610,887.69,606,891.69,602,887.69,606,896.69" style="stroke:#181818;stroke-width:1.0;"/></g><!--reverse link CestaBasica to ItemCesta--><g id="link_CestaBasica_ItemCesta"><path codeLine="133" d="M895.1603,832.9016 C894.4403,852.1016 894.11,861.17 893.39,880.37 " fill="none" id="CestaBasica-backto-ItemCesta" style="stroke:#181818;stroke-width:1.0;"/><polygon fill="#181818" points="895.61,820.91,891.388,826.7559,895.1603,832.9016,899.3823,827.0557,895.61,820.91" style="stroke:#181818;stroke-width:1.0;"/></g><!--link Motorista to ValeAlimentacao--><g id="link_Motorista_ValeAlimentacao"><path codeLine="135" d="M519.0288,640.9604 C534.5088,661.2504 546.5396,677.0106 565.9196,702.4006 " fill="none" id="Motorista-ValeAlimentacao" style="stroke:#181818;stroke-width:1.0;"/><polygon fill="none" points="511.75,631.42,512.2092,638.6165,519.0288,640.9604,518.5695,633.764,511.75,631.42" style="stroke:#181818;stroke-width:1.0;"/><polygon fill="#181818" points="569.56,707.17,567.2789,697.5889,566.5263,703.1955,560.9197,702.4429,569.56,707.17" style="stroke:#181818;stroke-width:1.0;"/></g><!--link Coletor to CestaBasica--><g id="link_Coletor_CestaBasica"><path codeLine="136" d="M669.9384,635.3912 C700.7484,651.5412 728.5757,666.1247 770.2457,687.9647 " fill="none" id="Coletor-CestaBasica" style="stroke:#181818;stroke-width:1.0;"/><polygon fill="none" points="659.31,629.82,662.7671,636.1484,669.9384,635.3912,666.4812,629.0628,659.31,629.82" style="stroke:#181818;stroke-width:1.0;"/><polygon fill="#181818" points="775.56,690.75,769.4454,683.0291,771.1314,688.4289,765.7316,690.1149,775.56,690.75" style="stroke:#181818;stroke-width:1.0;"/></g><!--link Gari to CestaBasica--><g id="link_Gari_CestaBasica"><path codeLine="137" d="M901.042,643.4155 C900.602,659.5055 900.4842,663.7422 899.9042,684.9222 " fill="none" id="Gari-CestaBasica" style="stroke:#181818;stroke-width:1.0;"/><polygon fill="none" points="901.37,631.42,897.2075,637.3084,901.042,643.4155,905.2045,637.5271,901.37,631.42" style="stroke:#181818;stroke-width:1.0;"/><polygon fill="#181818" points="899.74,690.92,903.9849,682.0329,899.8769,685.9219,895.9879,681.8139,899.74,690.92" style="stroke:#181818;stroke-width:1.0;"/></g><!--link AuxiliarEscritorio to CestaBasica--><g id="link_AuxiliarEscritorio_CestaBasica"><path codeLine="138" d="M794.9411,640.3453 C809.4011,656.4353 817.3676,665.279 836.4176,686.459 " fill="none" id="AuxiliarEscritorio-CestaBasica" style="stroke:#181818;stroke-width:1.0;"/><polygon fill="none" points="786.92,631.42,787.9555,638.5564,794.9411,640.3453,793.9057,633.2089,786.92,631.42" style="stroke:#181818;stroke-width:1.0;"/><polygon fill="#181818" points="840.43,690.92,837.3854,681.5535,837.0863,687.2025,831.4374,686.9034,840.43,690.92" style="stroke:#181818;stroke-width:1.0;"/></g><!--SRC=[bLPHRziu37xthz3M5-zQ5mEskns2842wjaE1RJSWmTuLcytKEMOcoS66BVzzb2tBbADUxn84SVHzf4Zg8wDd5Toh1iG_cmSexLehsMnh46KjZH5dVxzqx-oP9wraBVMFpx9keUSFlDlRvPylHzurxgHgRWxGCCPVhrw_oRAzBB_ABOZdRwNUedWkVcQPo8IdzOlp-N9Zh9QbNIm85yChF1MYTCIxQYPMLgjcov0AJAbLAJ616HU_mYjfODOdev31NvInIBROGxAUYVUqD5-sEyh4h-A2MMoWeOnBXMRMCQ-6toCfF9mB-M1QAwtKtbFUu67mEXCLjfiQBiGEhJg4w5-8cJYWghYRoktGI1rsoqCSCn4M4vOQTdY0_sNMVHqp_zYVqhNIG8KIyDr2K_bJetCamh4pw6chTW_we0mnJy5b-rtLIkeRTrgkwlYKktTKfgSuRx7-Bv5zGBUZiV9HOiZrLfbIrabU5khZy-rFakJBEYHIy4I1jpLAEv4kaj3CJCol_JCvTKhaefCRR1p7AKvGgz2lGR1CTbmmdNv7sRrWcA53QYf8OfHusTR1xhtwrghgNobNkhKnOGjsDUQSEtNrGkSnn9oeHZqv4kL9uPSFhR4mr83gp-PFLFypGIlA_aWCZZDXrGv84hizLHOfhsjfOKrhZE8ZMpOMw4kVf18O7_602JHkxTI8e7BT-12xMasO7M4z1Denqh7omW_Xfei_ybpGZt8-TA5FOs978PJRvbwMCCwIKFhpWwnLHTrUmrPjb7kk8EZaV5FZjnROF0i8zK09rIbq97txbdUr8AtGo8ywhPl7TnPs7M4X53MmuLt13FCacSjuIg2At3bEf7Mdq74wEtOUJ9pBtGcv7yYFKuyPa_b8u7dsfo4QPATV-2CKUmqbygI3ZvpPNKHq7gGdKROVYHSbwqq8-kIiyaJ0D0PXhMLZzgWjH55la2QrRCGUZMcL8vwcPDKUHtEUHUmuFtLsaVR1un-CbFaKpF9qxkl8oMEPBclLZLcwUaIf-aBHPAXmcWIpoJalNUYLWyRjizvRVsSgQhYtnIAwrVG8zj1aIaQ4IK4PDlzL5EoFt26JQLiKRCjiRFtvPRk_P3qsXQPxJk19TRACz_aV55HGSkOdqFYdZWKLOkh0fUHl1ntEGoEikrsaWCH59KNhFjdnDm00]--></g></svg>