<svg xmlns="http://www.w3.org/2000/svg" xmlns:xlink="http://www.w3.org/1999/xlink" contentStyleType="text/css" height="613px" preserveAspectRatio="none" style="width:2723px;height:613px;background:#FFFFFF;" version="1.1" viewBox="0 0 2723 613" width="2723px" zoomAndPan="magnify"><defs/><g><!--class Document--><g id="elem_Document"><rect codeLine="1" fill="#F1F1F1" height="186.6406" id="Document" rx="2.5" ry="2.5" style="stroke:#181818;stroke-width:0.5;" width="246" x="888.5" y="7"/><ellipse cx="970.75" cy="27.1328" fill="#ADD1B2" rx="11" ry="11" style="stroke:#181818;stroke-width:1.0;"/><path d="M973.7188,32.7734 Q973.1406,33.0703 972.5,33.2109 Q971.8594,33.3672 971.1563,33.3672 Q968.6563,33.3672 967.3281,31.7266 Q966.0156,30.0703 966.0156,26.9453 Q966.0156,23.8203 967.3281,22.1641 Q968.6563,20.5078 971.1563,20.5078 Q971.8594,20.5078 972.5,20.6641 Q973.1563,20.8203 973.7188,21.1172 L973.7188,23.8359 Q973.0938,23.2578 972.5,22.9922 Q971.9063,22.7109 971.2813,22.7109 Q969.9375,22.7109 969.25,23.7891 Q968.5625,24.8516 968.5625,26.9453 Q968.5625,29.0391 969.25,30.1172 Q969.9375,31.1797 971.2813,31.1797 Q971.9063,31.1797 972.5,30.9141 Q973.0938,30.6328 973.7188,30.0547 L973.7188,32.7734 Z " fill="#000000"/><text fill="#000000" font-family="sans-serif" font-size="12" font-style="italic" lengthAdjust="spacing" textLength="49" x="1003.25" y="23.1387">&#171;Entity&#187;</text><text fill="#000000" font-family="sans-serif" font-size="14" lengthAdjust="spacing" textLength="73" x="991.25" y="38.9639">Document</text><line style="stroke:#181818;stroke-width:0.5;" x1="889.5" x2="1133.5" y1="47.2656" y2="47.2656"/><rect fill="none" height="6" style="stroke:#C82930;stroke-width:1.0;" width="6" x="896.5" y="57.9141"/><text fill="#000000" font-family="sans-serif" font-size="14" lengthAdjust="spacing" textLength="56" x="908.5" y="64.2607">String id</text><rect fill="none" height="6" style="stroke:#C82930;stroke-width:1.0;" width="6" x="896.5" y="74.2109"/><text fill="#000000" font-family="sans-serif" font-size="14" lengthAdjust="spacing" textLength="78" x="908.5" y="80.5576">String titulo</text><rect fill="none" height="6" style="stroke:#C82930;stroke-width:1.0;" width="6" x="896.5" y="90.5078"/><text fill="#000000" font-family="sans-serif" font-size="14" lengthAdjust="spacing" textLength="118" x="908.5" y="96.8545">Date dataCriacao</text><rect fill="none" height="6" style="stroke:#C82930;stroke-width:1.0;" width="6" x="896.5" y="106.8047"/><text fill="#000000" font-family="sans-serif" font-size="14" lengthAdjust="spacing" textLength="80" x="908.5" y="113.1514">String autor</text><rect fill="none" height="6" style="stroke:#C82930;stroke-width:1.0;" width="6" x="896.5" y="123.1016"/><text fill="#000000" font-family="sans-serif" font-size="14" lengthAdjust="spacing" textLength="178" x="908.5" y="129.4482">DocumentFormat formato</text><line style="stroke:#181818;stroke-width:0.5;" x1="889.5" x2="1133.5" y1="136.75" y2="136.75"/><ellipse cx="899.5" cy="150.3984" fill="#84BE84" rx="3" ry="3" style="stroke:#038048;stroke-width:1.0;"/><text fill="#000000" font-family="sans-serif" font-size="14" lengthAdjust="spacing" textLength="77" x="908.5" y="153.7451">abrir(): void</text><ellipse cx="899.5" cy="166.6953" fill="#84BE84" rx="3" ry="3" style="stroke:#038048;stroke-width:1.0;"/><text fill="#000000" font-family="sans-serif" font-size="14" lengthAdjust="spacing" textLength="86" x="908.5" y="170.042">salvar(): void</text><ellipse cx="899.5" cy="182.9922" fill="#84BE84" rx="3" ry="3" style="stroke:#038048;stroke-width:1.0;"/><text fill="#000000" font-family="sans-serif" font-size="14" lengthAdjust="spacing" textLength="220" x="908.5" y="186.3389">exportar(FileExtension ext): void</text></g><!--class GenereteDocument--><g id="elem_GenereteDocument"><rect codeLine="12" fill="#F1F1F1" height="64.2969" id="GenereteDocument" rx="2.5" ry="2.5" style="stroke:#181818;stroke-width:0.5;" width="533" x="1170" y="68.18"/><ellipse cx="1362.75" cy="84.18" fill="#ADD1B2" rx="11" ry="11" style="stroke:#181818;stroke-width:1.0;"/><path d="M1365.7188,89.8206 Q1365.1406,90.1175 1364.5,90.2581 Q1363.8594,90.4144 1363.1563,90.4144 Q1360.6563,90.4144 1359.3281,88.7737 Q1358.0156,87.1175 1358.0156,83.9925 Q1358.0156,80.8675 1359.3281,79.2112 Q1360.6563,77.555 1363.1563,77.555 Q1363.8594,77.555 1364.5,77.7112 Q1365.1563,77.8675 1365.7188,78.1644 L1365.7188,80.8831 Q1365.0938,80.305 1364.5,80.0394 Q1363.9063,79.7581 1363.2813,79.7581 Q1361.9375,79.7581 1361.25,80.8362 Q1360.5625,81.8987 1360.5625,83.9925 Q1360.5625,86.0862 1361.25,87.1644 Q1361.9375,88.2269 1363.2813,88.2269 Q1363.9063,88.2269 1364.5,87.9612 Q1365.0938,87.68 1365.7188,87.1019 L1365.7188,89.8206 Z " fill="#000000"/><text fill="#000000" font-family="sans-serif" font-size="14" lengthAdjust="spacing" textLength="139" x="1383.25" y="89.0267">GenereteDocument</text><line style="stroke:#181818;stroke-width:0.5;" x1="1171" x2="1702" y1="100.18" y2="100.18"/><line style="stroke:#181818;stroke-width:0.5;" x1="1171" x2="1702" y1="108.18" y2="108.18"/><ellipse cx="1181" cy="121.8284" fill="#84BE84" rx="3" ry="3" style="stroke:#038048;stroke-width:1.0;"/><text fill="#000000" font-family="sans-serif" font-size="14" lengthAdjust="spacing" textLength="507" x="1190" y="125.1751">gerarDocumento(DocumentFormat formato, String conteudo): Document</text></g><!--class DocumentFormat--><g id="elem_DocumentFormat"><rect codeLine="16" fill="#F1F1F1" height="96.8906" id="DocumentFormat" rx="2.5" ry="2.5" style="stroke:#181818;stroke-width:0.5;" width="357" x="1183" y="311.39"/><ellipse cx="1296.75" cy="327.39" fill="#B4A7E5" rx="11" ry="11" style="stroke:#181818;stroke-width:1.0;"/><path d="M1292.6719,323.1556 L1292.6719,320.9994 L1300.0625,320.9994 L1300.0625,323.1556 L1297.5938,323.1556 L1297.5938,331.2338 L1300.0625,331.2338 L1300.0625,333.39 L1292.6719,333.39 L1292.6719,331.2338 L1295.1406,331.2338 L1295.1406,323.1556 L1292.6719,323.1556 Z " fill="#000000"/><text fill="#000000" font-family="sans-serif" font-size="14" font-style="italic" lengthAdjust="spacing" textLength="121" x="1317.25" y="332.2367">DocumentFormat</text><line style="stroke:#181818;stroke-width:0.5;" x1="1184" x2="1539" y1="343.39" y2="343.39"/><line style="stroke:#181818;stroke-width:0.5;" x1="1184" x2="1539" y1="351.39" y2="351.39"/><ellipse cx="1194" cy="365.0384" fill="#84BE84" rx="3" ry="3" style="stroke:#038048;stroke-width:1.0;"/><text fill="#000000" font-family="sans-serif" font-size="14" lengthAdjust="spacing" textLength="180" x="1203" y="368.3851">abrir(Document doc): void</text><ellipse cx="1194" cy="381.3353" fill="#84BE84" rx="3" ry="3" style="stroke:#038048;stroke-width:1.0;"/><text fill="#000000" font-family="sans-serif" font-size="14" lengthAdjust="spacing" textLength="189" x="1203" y="384.682">salvar(Document doc): void</text><ellipse cx="1194" cy="397.6322" fill="#84BE84" rx="3" ry="3" style="stroke:#038048;stroke-width:1.0;"/><text fill="#000000" font-family="sans-serif" font-size="14" lengthAdjust="spacing" textLength="331" x="1203" y="400.9789">exportar(Document doc, FileExtension ext): void</text></g><!--class MicrosoftWord--><g id="elem_MicrosoftWord"><rect codeLine="22" fill="#F1F1F1" height="96.8906" id="MicrosoftWord" rx="2.5" ry="2.5" style="stroke:#181818;stroke-width:0.5;" width="357" x="7" y="510.02"/><ellipse cx="131.75" cy="526.02" fill="#ADD1B2" rx="11" ry="11" style="stroke:#181818;stroke-width:1.0;"/><path d="M134.7188,531.6606 Q134.1406,531.9575 133.5,532.0981 Q132.8594,532.2544 132.1563,532.2544 Q129.6563,532.2544 128.3281,530.6138 Q127.0156,528.9575 127.0156,525.8325 Q127.0156,522.7075 128.3281,521.0513 Q129.6563,519.395 132.1563,519.395 Q132.8594,519.395 133.5,519.5513 Q134.1563,519.7075 134.7188,520.0044 L134.7188,522.7231 Q134.0938,522.145 133.5,521.8794 Q132.9063,521.5981 132.2813,521.5981 Q130.9375,521.5981 130.25,522.6763 Q129.5625,523.7388 129.5625,525.8325 Q129.5625,527.9263 130.25,529.0044 Q130.9375,530.0669 132.2813,530.0669 Q132.9063,530.0669 133.5,529.8013 Q134.0938,529.52 134.7188,528.9419 L134.7188,531.6606 Z " fill="#000000"/><text fill="#000000" font-family="sans-serif" font-size="14" lengthAdjust="spacing" textLength="99" x="152.25" y="530.8667">MicrosoftWord</text><line style="stroke:#181818;stroke-width:0.5;" x1="8" x2="363" y1="542.02" y2="542.02"/><line style="stroke:#181818;stroke-width:0.5;" x1="8" x2="363" y1="550.02" y2="550.02"/><ellipse cx="18" cy="563.6684" fill="#84BE84" rx="3" ry="3" style="stroke:#038048;stroke-width:1.0;"/><text fill="#000000" font-family="sans-serif" font-size="14" lengthAdjust="spacing" textLength="180" x="27" y="567.0151">abrir(Document doc): void</text><ellipse cx="18" cy="579.9653" fill="#84BE84" rx="3" ry="3" style="stroke:#038048;stroke-width:1.0;"/><text fill="#000000" font-family="sans-serif" font-size="14" lengthAdjust="spacing" textLength="189" x="27" y="583.312">salvar(Document doc): void</text><ellipse cx="18" cy="596.2622" fill="#84BE84" rx="3" ry="3" style="stroke:#038048;stroke-width:1.0;"/><text fill="#000000" font-family="sans-serif" font-size="14" lengthAdjust="spacing" textLength="331" x="27" y="599.6089">exportar(Document doc, FileExtension ext): void</text></g><!--class MicrosoftExcel--><g id="elem_MicrosoftExcel"><rect codeLine="28" fill="#F1F1F1" height="96.8906" id="MicrosoftExcel" rx="2.5" ry="2.5" style="stroke:#181818;stroke-width:0.5;" width="357" x="399" y="510.02"/><ellipse cx="523.75" cy="526.02" fill="#ADD1B2" rx="11" ry="11" style="stroke:#181818;stroke-width:1.0;"/><path d="M526.7188,531.6606 Q526.1406,531.9575 525.5,532.0981 Q524.8594,532.2544 524.1563,532.2544 Q521.6563,532.2544 520.3281,530.6138 Q519.0156,528.9575 519.0156,525.8325 Q519.0156,522.7075 520.3281,521.0513 Q521.6563,519.395 524.1563,519.395 Q524.8594,519.395 525.5,519.5513 Q526.1563,519.7075 526.7188,520.0044 L526.7188,522.7231 Q526.0938,522.145 525.5,521.8794 Q524.9063,521.5981 524.2813,521.5981 Q522.9375,521.5981 522.25,522.6763 Q521.5625,523.7388 521.5625,525.8325 Q521.5625,527.9263 522.25,529.0044 Q522.9375,530.0669 524.2813,530.0669 Q524.9063,530.0669 525.5,529.8013 Q526.0938,529.52 526.7188,528.9419 L526.7188,531.6606 Z " fill="#000000"/><text fill="#000000" font-family="sans-serif" font-size="14" lengthAdjust="spacing" textLength="99" x="544.25" y="530.8667">MicrosoftExcel</text><line style="stroke:#181818;stroke-width:0.5;" x1="400" x2="755" y1="542.02" y2="542.02"/><line style="stroke:#181818;stroke-width:0.5;" x1="400" x2="755" y1="550.02" y2="550.02"/><ellipse cx="410" cy="563.6684" fill="#84BE84" rx="3" ry="3" style="stroke:#038048;stroke-width:1.0;"/><text fill="#000000" font-family="sans-serif" font-size="14" lengthAdjust="spacing" textLength="180" x="419" y="567.0151">abrir(Document doc): void</text><ellipse cx="410" cy="579.9653" fill="#84BE84" rx="3" ry="3" style="stroke:#038048;stroke-width:1.0;"/><text fill="#000000" font-family="sans-serif" font-size="14" lengthAdjust="spacing" textLength="189" x="419" y="583.312">salvar(Document doc): void</text><ellipse cx="410" cy="596.2622" fill="#84BE84" rx="3" ry="3" style="stroke:#038048;stroke-width:1.0;"/><text fill="#000000" font-family="sans-serif" font-size="14" lengthAdjust="spacing" textLength="331" x="419" y="599.6089">exportar(Document doc, FileExtension ext): void</text></g><!--class MicrosoftPowerPoint--><g id="elem_MicrosoftPowerPoint"><rect codeLine="34" fill="#F1F1F1" height="96.8906" id="MicrosoftPowerPoint" rx="2.5" ry="2.5" style="stroke:#181818;stroke-width:0.5;" width="357" x="791" y="510.02"/><ellipse cx="894.75" cy="526.02" fill="#ADD1B2" rx="11" ry="11" style="stroke:#181818;stroke-width:1.0;"/><path d="M897.7188,531.6606 Q897.1406,531.9575 896.5,532.0981 Q895.8594,532.2544 895.1563,532.2544 Q892.6563,532.2544 891.3281,530.6138 Q890.0156,528.9575 890.0156,525.8325 Q890.0156,522.7075 891.3281,521.0513 Q892.6563,519.395 895.1563,519.395 Q895.8594,519.395 896.5,519.5513 Q897.1563,519.7075 897.7188,520.0044 L897.7188,522.7231 Q897.0938,522.145 896.5,521.8794 Q895.9063,521.5981 895.2813,521.5981 Q893.9375,521.5981 893.25,522.6763 Q892.5625,523.7388 892.5625,525.8325 Q892.5625,527.9263 893.25,529.0044 Q893.9375,530.0669 895.2813,530.0669 Q895.9063,530.0669 896.5,529.8013 Q897.0938,529.52 897.7188,528.9419 L897.7188,531.6606 Z " fill="#000000"/><text fill="#000000" font-family="sans-serif" font-size="14" lengthAdjust="spacing" textLength="141" x="915.25" y="530.8667">MicrosoftPowerPoint</text><line style="stroke:#181818;stroke-width:0.5;" x1="792" x2="1147" y1="542.02" y2="542.02"/><line style="stroke:#181818;stroke-width:0.5;" x1="792" x2="1147" y1="550.02" y2="550.02"/><ellipse cx="802" cy="563.6684" fill="#84BE84" rx="3" ry="3" style="stroke:#038048;stroke-width:1.0;"/><text fill="#000000" font-family="sans-serif" font-size="14" lengthAdjust="spacing" textLength="180" x="811" y="567.0151">abrir(Document doc): void</text><ellipse cx="802" cy="579.9653" fill="#84BE84" rx="3" ry="3" style="stroke:#038048;stroke-width:1.0;"/><text fill="#000000" font-family="sans-serif" font-size="14" lengthAdjust="spacing" textLength="189" x="811" y="583.312">salvar(Document doc): void</text><ellipse cx="802" cy="596.2622" fill="#84BE84" rx="3" ry="3" style="stroke:#038048;stroke-width:1.0;"/><text fill="#000000" font-family="sans-serif" font-size="14" lengthAdjust="spacing" textLength="331" x="811" y="599.6089">exportar(Document doc, FileExtension ext): void</text></g><!--class LibreOffice--><g id="elem_LibreOffice"><rect codeLine="40" fill="#F1F1F1" height="96.8906" id="LibreOffice" rx="2.5" ry="2.5" style="stroke:#181818;stroke-width:0.5;" width="357" x="1183" y="510.02"/><ellipse cx="1321.25" cy="526.02" fill="#ADD1B2" rx="11" ry="11" style="stroke:#181818;stroke-width:1.0;"/><path d="M1324.2188,531.6606 Q1323.6406,531.9575 1323,532.0981 Q1322.3594,532.2544 1321.6563,532.2544 Q1319.1563,532.2544 1317.8281,530.6138 Q1316.5156,528.9575 1316.5156,525.8325 Q1316.5156,522.7075 1317.8281,521.0513 Q1319.1563,519.395 1321.6563,519.395 Q1322.3594,519.395 1323,519.5513 Q1323.6563,519.7075 1324.2188,520.0044 L1324.2188,522.7231 Q1323.5938,522.145 1323,521.8794 Q1322.4063,521.5981 1321.7813,521.5981 Q1320.4375,521.5981 1319.75,522.6763 Q1319.0625,523.7388 1319.0625,525.8325 Q1319.0625,527.9263 1319.75,529.0044 Q1320.4375,530.0669 1321.7813,530.0669 Q1322.4063,530.0669 1323,529.8013 Q1323.5938,529.52 1324.2188,528.9419 L1324.2188,531.6606 Z " fill="#000000"/><text fill="#000000" font-family="sans-serif" font-size="14" lengthAdjust="spacing" textLength="72" x="1341.75" y="530.8667">LibreOffice</text><line style="stroke:#181818;stroke-width:0.5;" x1="1184" x2="1539" y1="542.02" y2="542.02"/><line style="stroke:#181818;stroke-width:0.5;" x1="1184" x2="1539" y1="550.02" y2="550.02"/><ellipse cx="1194" cy="563.6684" fill="#84BE84" rx="3" ry="3" style="stroke:#038048;stroke-width:1.0;"/><text fill="#000000" font-family="sans-serif" font-size="14" lengthAdjust="spacing" textLength="180" x="1203" y="567.0151">abrir(Document doc): void</text><ellipse cx="1194" cy="579.9653" fill="#84BE84" rx="3" ry="3" style="stroke:#038048;stroke-width:1.0;"/><text fill="#000000" font-family="sans-serif" font-size="14" lengthAdjust="spacing" textLength="189" x="1203" y="583.312">salvar(Document doc): void</text><ellipse cx="1194" cy="596.2622" fill="#84BE84" rx="3" ry="3" style="stroke:#038048;stroke-width:1.0;"/><text fill="#000000" font-family="sans-serif" font-size="14" lengthAdjust="spacing" textLength="331" x="1203" y="599.6089">exportar(Document doc, FileExtension ext): void</text></g><!--class PostDocumentFile--><g id="elem_PostDocumentFile"><rect codeLine="46" fill="#F1F1F1" height="96.8906" id="PostDocumentFile" rx="2.5" ry="2.5" style="stroke:#181818;stroke-width:0.5;" width="357" x="1575" y="510.02"/><ellipse cx="1685.75" cy="526.02" fill="#ADD1B2" rx="11" ry="11" style="stroke:#181818;stroke-width:1.0;"/><path d="M1688.7188,531.6606 Q1688.1406,531.9575 1687.5,532.0981 Q1686.8594,532.2544 1686.1563,532.2544 Q1683.6563,532.2544 1682.3281,530.6138 Q1681.0156,528.9575 1681.0156,525.8325 Q1681.0156,522.7075 1682.3281,521.0513 Q1683.6563,519.395 1686.1563,519.395 Q1686.8594,519.395 1687.5,519.5513 Q1688.1563,519.7075 1688.7188,520.0044 L1688.7188,522.7231 Q1688.0938,522.145 1687.5,521.8794 Q1686.9063,521.5981 1686.2813,521.5981 Q1684.9375,521.5981 1684.25,522.6763 Q1683.5625,523.7388 1683.5625,525.8325 Q1683.5625,527.9263 1684.25,529.0044 Q1684.9375,530.0669 1686.2813,530.0669 Q1686.9063,530.0669 1687.5,529.8013 Q1688.0938,529.52 1688.7188,528.9419 L1688.7188,531.6606 Z " fill="#000000"/><text fill="#000000" font-family="sans-serif" font-size="14" lengthAdjust="spacing" textLength="127" x="1706.25" y="530.8667">PostDocumentFile</text><line style="stroke:#181818;stroke-width:0.5;" x1="1576" x2="1931" y1="542.02" y2="542.02"/><line style="stroke:#181818;stroke-width:0.5;" x1="1576" x2="1931" y1="550.02" y2="550.02"/><ellipse cx="1586" cy="563.6684" fill="#84BE84" rx="3" ry="3" style="stroke:#038048;stroke-width:1.0;"/><text fill="#000000" font-family="sans-serif" font-size="14" lengthAdjust="spacing" textLength="180" x="1595" y="567.0151">abrir(Document doc): void</text><ellipse cx="1586" cy="579.9653" fill="#84BE84" rx="3" ry="3" style="stroke:#038048;stroke-width:1.0;"/><text fill="#000000" font-family="sans-serif" font-size="14" lengthAdjust="spacing" textLength="189" x="1595" y="583.312">salvar(Document doc): void</text><ellipse cx="1586" cy="596.2622" fill="#84BE84" rx="3" ry="3" style="stroke:#038048;stroke-width:1.0;"/><text fill="#000000" font-family="sans-serif" font-size="14" lengthAdjust="spacing" textLength="331" x="1595" y="599.6089">exportar(Document doc, FileExtension ext): void</text></g><!--class OpenDocumentFile--><g id="elem_OpenDocumentFile"><rect codeLine="52" fill="#F1F1F1" height="96.8906" id="OpenDocumentFile" rx="2.5" ry="2.5" style="stroke:#181818;stroke-width:0.5;" width="357" x="1967" y="510.02"/><ellipse cx="2074.25" cy="526.02" fill="#ADD1B2" rx="11" ry="11" style="stroke:#181818;stroke-width:1.0;"/><path d="M2077.2188,531.6606 Q2076.6406,531.9575 2076,532.0981 Q2075.3594,532.2544 2074.6563,532.2544 Q2072.1563,532.2544 2070.8281,530.6138 Q2069.5156,528.9575 2069.5156,525.8325 Q2069.5156,522.7075 2070.8281,521.0513 Q2072.1563,519.395 2074.6563,519.395 Q2075.3594,519.395 2076,519.5513 Q2076.6563,519.7075 2077.2188,520.0044 L2077.2188,522.7231 Q2076.5938,522.145 2076,521.8794 Q2075.4063,521.5981 2074.7813,521.5981 Q2073.4375,521.5981 2072.75,522.6763 Q2072.0625,523.7388 2072.0625,525.8325 Q2072.0625,527.9263 2072.75,529.0044 Q2073.4375,530.0669 2074.7813,530.0669 Q2075.4063,530.0669 2076,529.8013 Q2076.5938,529.52 2077.2188,528.9419 L2077.2188,531.6606 Z " fill="#000000"/><text fill="#000000" font-family="sans-serif" font-size="14" lengthAdjust="spacing" textLength="134" x="2094.75" y="530.8667">OpenDocumentFile</text><line style="stroke:#181818;stroke-width:0.5;" x1="1968" x2="2323" y1="542.02" y2="542.02"/><line style="stroke:#181818;stroke-width:0.5;" x1="1968" x2="2323" y1="550.02" y2="550.02"/><ellipse cx="1978" cy="563.6684" fill="#84BE84" rx="3" ry="3" style="stroke:#038048;stroke-width:1.0;"/><text fill="#000000" font-family="sans-serif" font-size="14" lengthAdjust="spacing" textLength="180" x="1987" y="567.0151">abrir(Document doc): void</text><ellipse cx="1978" cy="579.9653" fill="#84BE84" rx="3" ry="3" style="stroke:#038048;stroke-width:1.0;"/><text fill="#000000" font-family="sans-serif" font-size="14" lengthAdjust="spacing" textLength="189" x="1987" y="583.312">salvar(Document doc): void</text><ellipse cx="1978" cy="596.2622" fill="#84BE84" rx="3" ry="3" style="stroke:#038048;stroke-width:1.0;"/><text fill="#000000" font-family="sans-serif" font-size="14" lengthAdjust="spacing" textLength="331" x="1987" y="599.6089">exportar(Document doc, FileExtension ext): void</text></g><!--class TextoSimples--><g id="elem_TextoSimples"><rect codeLine="58" fill="#F1F1F1" height="96.8906" id="TextoSimples" rx="2.5" ry="2.5" style="stroke:#181818;stroke-width:0.5;" width="357" x="2359" y="510.02"/><ellipse cx="2486.75" cy="526.02" fill="#ADD1B2" rx="11" ry="11" style="stroke:#181818;stroke-width:1.0;"/><path d="M2489.7188,531.6606 Q2489.1406,531.9575 2488.5,532.0981 Q2487.8594,532.2544 2487.1563,532.2544 Q2484.6563,532.2544 2483.3281,530.6138 Q2482.0156,528.9575 2482.0156,525.8325 Q2482.0156,522.7075 2483.3281,521.0513 Q2484.6563,519.395 2487.1563,519.395 Q2487.8594,519.395 2488.5,519.5513 Q2489.1563,519.7075 2489.7188,520.0044 L2489.7188,522.7231 Q2489.0938,522.145 2488.5,521.8794 Q2487.9063,521.5981 2487.2813,521.5981 Q2485.9375,521.5981 2485.25,522.6763 Q2484.5625,523.7388 2484.5625,525.8325 Q2484.5625,527.9263 2485.25,529.0044 Q2485.9375,530.0669 2487.2813,530.0669 Q2487.9063,530.0669 2488.5,529.8013 Q2489.0938,529.52 2489.7188,528.9419 L2489.7188,531.6606 Z " fill="#000000"/><text fill="#000000" font-family="sans-serif" font-size="14" lengthAdjust="spacing" textLength="93" x="2507.25" y="530.8667">TextoSimples</text><line style="stroke:#181818;stroke-width:0.5;" x1="2360" x2="2715" y1="542.02" y2="542.02"/><line style="stroke:#181818;stroke-width:0.5;" x1="2360" x2="2715" y1="550.02" y2="550.02"/><ellipse cx="2370" cy="563.6684" fill="#84BE84" rx="3" ry="3" style="stroke:#038048;stroke-width:1.0;"/><text fill="#000000" font-family="sans-serif" font-size="14" lengthAdjust="spacing" textLength="180" x="2379" y="567.0151">abrir(Document doc): void</text><ellipse cx="2370" cy="579.9653" fill="#84BE84" rx="3" ry="3" style="stroke:#038048;stroke-width:1.0;"/><text fill="#000000" font-family="sans-serif" font-size="14" lengthAdjust="spacing" textLength="189" x="2379" y="583.312">salvar(Document doc): void</text><ellipse cx="2370" cy="596.2622" fill="#84BE84" rx="3" ry="3" style="stroke:#038048;stroke-width:1.0;"/><text fill="#000000" font-family="sans-serif" font-size="14" lengthAdjust="spacing" textLength="331" x="2379" y="599.6089">exportar(Document doc, FileExtension ext): void</text></g><!--class FileExtension--><g id="elem_FileExtension"><rect codeLine="64" fill="#F1F1F1" height="178.375" id="FileExtension" rx="2.5" ry="2.5" style="stroke:#181818;stroke-width:0.5;" width="123" x="950" y="270.64"/><ellipse cx="965" cy="286.64" fill="#EB937F" rx="11" ry="11" style="stroke:#181818;stroke-width:1.0;"/><path d="M969.1094,292.64 L961.3906,292.64 L961.3906,280.2494 L969.1094,280.2494 L969.1094,282.4056 L963.8438,282.4056 L963.8438,285.0775 L968.6094,285.0775 L968.6094,287.2338 L963.8438,287.2338 L963.8438,290.4838 L969.1094,290.4838 L969.1094,292.64 Z " fill="#000000"/><text fill="#000000" font-family="sans-serif" font-size="14" lengthAdjust="spacing" textLength="91" x="979" y="291.4867">FileExtension</text><line style="stroke:#181818;stroke-width:0.5;" x1="951" x2="1072" y1="302.64" y2="302.64"/><text fill="#000000" font-family="sans-serif" font-size="14" lengthAdjust="spacing" textLength="41" x="956" y="319.6351">DOCX</text><text fill="#000000" font-family="sans-serif" font-size="14" lengthAdjust="spacing" textLength="34" x="956" y="335.932">XLSX</text><text fill="#000000" font-family="sans-serif" font-size="14" lengthAdjust="spacing" textLength="36" x="956" y="352.2289">PPTX</text><text fill="#000000" font-family="sans-serif" font-size="14" lengthAdjust="spacing" textLength="31" x="956" y="368.5257">ODT</text><text fill="#000000" font-family="sans-serif" font-size="14" lengthAdjust="spacing" textLength="31" x="956" y="384.8226">ODS</text><text fill="#000000" font-family="sans-serif" font-size="14" lengthAdjust="spacing" textLength="31" x="956" y="401.1195">ODP</text><text fill="#000000" font-family="sans-serif" font-size="14" lengthAdjust="spacing" textLength="28" x="956" y="417.4164">PDF</text><text fill="#000000" font-family="sans-serif" font-size="14" lengthAdjust="spacing" textLength="27" x="956" y="433.7132">TXT</text><line style="stroke:#181818;stroke-width:0.5;" x1="951" x2="1072" y1="441.015" y2="441.015"/></g><!--reverse link DocumentFormat to MicrosoftWord--><g id="link_DocumentFormat_MicrosoftWord"><path d="M1217.8493,414.4282 C1172.8593,429.6482 1138.5,439.28 1090.5,449.02 C780.54,511.92 693.65,459.11 381.5,510.02 C375.88,510.94 370.19,511.93 364.46,512.98 " fill="none" id="DocumentFormat-backto-MicrosoftWord" style="stroke:#181818;stroke-width:1.0;stroke-dasharray:7.0,7.0;"/><polygon fill="none" points="1234.9,408.66,1215.9265,408.7446,1219.772,420.1118,1234.9,408.66" style="stroke:#181818;stroke-width:1.0;"/></g><!--reverse link DocumentFormat to MicrosoftExcel--><g id="link_DocumentFormat_MicrosoftExcel"><path d="M1208.5535,414.3311 C1165.6535,428.4611 1134.94,437.56 1090.5,449.02 C951.57,484.84 913.71,479.58 773.5,510.02 C767.85,511.25 762.12,512.51 756.34,513.8 " fill="none" id="DocumentFormat-backto-MicrosoftExcel" style="stroke:#181818;stroke-width:1.0;stroke-dasharray:7.0,7.0;"/><polygon fill="none" points="1225.65,408.7,1206.6765,408.6323,1210.4305,420.0299,1225.65,408.7" style="stroke:#181818;stroke-width:1.0;"/></g><!--reverse link DocumentFormat to MicrosoftPowerPoint--><g id="link_DocumentFormat_MicrosoftPowerPoint"><path d="M1250.0209,416.7509 C1188.9409,447.3909 1126.07,478.93 1064.98,509.57 " fill="none" id="DocumentFormat-backto-MicrosoftPowerPoint" style="stroke:#181818;stroke-width:1.0;stroke-dasharray:7.0,7.0;"/><polygon fill="none" points="1266.11,408.68,1247.3306,411.3879,1252.7112,422.114,1266.11,408.68" style="stroke:#181818;stroke-width:1.0;"/></g><!--reverse link DocumentFormat to LibreOffice--><g id="link_DocumentFormat_LibreOffice"><path d="M1361.5,426.68 C1361.5,457.38 1361.5,479.07 1361.5,509.74 " fill="none" id="DocumentFormat-backto-LibreOffice" style="stroke:#181818;stroke-width:1.0;stroke-dasharray:7.0,7.0;"/><polygon fill="none" points="1361.5,408.68,1355.5,426.68,1367.5,426.68,1361.5,408.68" style="stroke:#181818;stroke-width:1.0;"/></g><!--reverse link DocumentFormat to PostDocumentFile--><g id="link_DocumentFormat_PostDocumentFile"><path d="M1472.9791,416.7509 C1534.0591,447.3909 1596.93,478.93 1658.02,509.57 " fill="none" id="DocumentFormat-backto-PostDocumentFile" style="stroke:#181818;stroke-width:1.0;stroke-dasharray:7.0,7.0;"/><polygon fill="none" points="1456.89,408.68,1470.2888,422.114,1475.6694,411.3879,1456.89,408.68" style="stroke:#181818;stroke-width:1.0;"/></g><!--reverse link DocumentFormat to OpenDocumentFile--><g id="link_DocumentFormat_OpenDocumentFile"><path d="M1557.8393,410.0788 C1685.5093,442.0988 1839.06,480.61 1966.71,512.62 " fill="none" id="DocumentFormat-backto-OpenDocumentFile" style="stroke:#181818;stroke-width:1.0;stroke-dasharray:7.0,7.0;"/><polygon fill="none" points="1540.38,405.7,1556.3797,415.8986,1559.2989,404.2591,1540.38,405.7" style="stroke:#181818;stroke-width:1.0;"/></g><!--reverse link DocumentFormat to TextoSimples--><g id="link_DocumentFormat_TextoSimples"><path d="M1558.0766,385.6646 C1755.1466,411.5546 2063.3,455.28 2341.5,510.02 C2347.17,511.13 2352.92,512.3 2358.72,513.51 " fill="none" id="DocumentFormat-backto-TextoSimples" style="stroke:#181818;stroke-width:1.0;stroke-dasharray:7.0,7.0;"/><polygon fill="none" points="1540.23,383.32,1557.2951,391.6135,1558.8582,379.7157,1540.23,383.32" style="stroke:#181818;stroke-width:1.0;"/></g><!--link Document to DocumentFormat--><g id="link_Document_DocumentFormat"><path codeLine="76" d="M1134.9,192.11 C1189.41,232.22 1246.4375,274.1737 1291.7275,307.5037 " fill="none" id="Document-to-DocumentFormat" style="stroke:#181818;stroke-width:1.0;"/><polygon fill="#181818" points="1296.56,311.06,1291.6822,302.5039,1292.533,308.0964,1286.9404,308.9472,1296.56,311.06" style="stroke:#181818;stroke-width:1.0;"/><polygon fill="#000000" points="1205.5273,235.1697,1199.9836,227.4419,1196.5001,232.1762,1205.5273,235.1697" style="stroke:#000000;stroke-width:1.0;"/><text fill="#000000" font-family="sans-serif" font-size="13" lengthAdjust="spacing" textLength="23" x="1210.5" y="236.7069">usa</text></g><!--link GenereteDocument to DocumentFormat--><g id="link_GenereteDocument_DocumentFormat"><path codeLine="77" d="M1427.3,132.9 C1414.32,177.49 1392.1769,253.4891 1377.0469,305.4691 " fill="none" id="GenereteDocument-to-DocumentFormat" style="stroke:#181818;stroke-width:1.0;"/><polygon fill="#181818" points="1375.37,311.23,1381.7259,303.7065,1376.7674,306.4292,1374.0447,301.4707,1375.37,311.23" style="stroke:#181818;stroke-width:1.0;"/><polygon fill="#000000" points="1402.102,237.007,1407.4527,229.1443,1401.8093,227.5009,1402.102,237.007" style="stroke:#000000;stroke-width:1.0;"/><text fill="#000000" font-family="sans-serif" font-size="13" lengthAdjust="spacing" textLength="23" x="1412.5" y="236.7069">usa</text></g><!--link Document to FileExtension--><g id="link_Document_FileExtension"><path codeLine="78" d="M1011.5,193.93 C1011.5,218.87 1011.5,239.79 1011.5,264.49 " fill="none" id="Document-to-FileExtension" style="stroke:#181818;stroke-width:1.0;"/><polygon fill="#181818" points="1011.5,270.49,1015.5,261.49,1011.5,265.49,1007.5,261.49,1011.5,270.49" style="stroke:#181818;stroke-width:1.0;"/><polygon fill="#000000" points="1016.5,237.2064,1019.4389,228.1613,1013.5611,228.1613,1016.5,237.2064" style="stroke:#000000;stroke-width:1.0;"/><text fill="#000000" font-family="sans-serif" font-size="13" lengthAdjust="spacing" textLength="49" x="1025.5" y="236.7069">exporta</text></g><!--SRC=[rPNFQeD048VlFiKSKvAyW0GlCIc550M5vhfPnx2WEs5sJLD2txqR_r5jsbwDbrc7RsU-7mZAGXW38ScgH6rXjTfeg-n74C3L0_Si8R6iz15KDdntL5LGsmk5HSY45MjMGWeQegAon1tPRjeIby92NfU6duCuiEBPamzdQjVDmOZYBCPDl9o8hMjlLO6RYqLj56dNjXttwNcoZlQC6XajzX6lxOmZik2kIxFxOeikWoHjiSh8pU_8suuNr-LSI1m7kmuYzSipadVZ_GxqKRyZ2_W_-AkIJ8Po-qQSWIfF1TwkcmcRRYuIYyTGZUaTEIRbhaxPTwSEZ56UA_U5Jjap9cDxAKTFMZOweNuOsTGrAQaDpKH5KLVb26XqmcYzhm_xNT8SuZXj3b6OjZLfQzm0uRQkwJwzZVPwY-Ko66VseJ820k_7B-8FTi0CdVqkEmHV]--></g></svg>