<svg xmlns="http://www.w3.org/2000/svg" xmlns:xlink="http://www.w3.org/1999/xlink" contentStyleType="text/css" height="982px" preserveAspectRatio="none" style="width:1432px;height:982px;background:#FFFFFF;" version="1.1" viewBox="0 0 1432 982" width="1432px" zoomAndPan="magnify"><defs/><g><!--class Produto--><g id="elem_Produto"><rect codeLine="6" fill="#F1F1F1" height="162.0781" id="Produto" rx="2.5" ry="2.5" style="stroke:#181818;stroke-width:0.5;" width="255" x="677" y="688.75"/><ellipse cx="772.75" cy="704.75" fill="#ADD1B2" rx="11" ry="11" style="stroke:#181818;stroke-width:1.0;"/><path d="M775.7188,710.3906 Q775.1406,710.6875 774.5,710.8281 Q773.8594,710.9844 773.1563,710.9844 Q770.6563,710.9844 769.3281,709.3438 Q768.0156,707.6875 768.0156,704.5625 Q768.0156,701.4375 769.3281,699.7813 Q770.6563,698.125 773.1563,698.125 Q773.8594,698.125 774.5,698.2813 Q775.1563,698.4375 775.7188,698.7344 L775.7188,701.4531 Q775.0938,700.875 774.5,700.6094 Q773.9063,700.3281 773.2813,700.3281 Q771.9375,700.3281 771.25,701.4063 Q770.5625,702.4688 770.5625,704.5625 Q770.5625,706.6563 771.25,707.7344 Q771.9375,708.7969 773.2813,708.7969 Q773.9063,708.7969 774.5,708.5313 Q775.0938,708.25 775.7188,707.6719 L775.7188,710.3906 Z " fill="#000000"/><text fill="#000000" font-family="sans-serif" font-size="14" lengthAdjust="spacing" textLength="55" x="793.25" y="709.5967">Produto</text><line style="stroke:#181818;stroke-width:0.5;" x1="678" x2="931" y1="720.75" y2="720.75"/><rect fill="none" height="6" style="stroke:#C82930;stroke-width:1.0;" width="6" x="685" y="731.3984"/><text fill="#000000" font-family="sans-serif" font-size="14" lengthAdjust="spacing" textLength="33" x="697" y="737.7451">int id</text><rect fill="none" height="6" style="stroke:#C82930;stroke-width:1.0;" width="6" x="685" y="747.6953"/><text fill="#000000" font-family="sans-serif" font-size="14" lengthAdjust="spacing" textLength="84" x="697" y="754.042">String nome</text><rect fill="none" height="6" style="stroke:#C82930;stroke-width:1.0;" width="6" x="685" y="763.9922"/><text fill="#000000" font-family="sans-serif" font-size="14" lengthAdjust="spacing" textLength="111" x="697" y="770.3389">String descricao</text><rect fill="none" height="6" style="stroke:#C82930;stroke-width:1.0;" width="6" x="685" y="780.2891"/><text fill="#000000" font-family="sans-serif" font-size="14" lengthAdjust="spacing" textLength="92" x="697" y="786.6357">double preco</text><rect fill="none" height="6" style="stroke:#C82930;stroke-width:1.0;" width="6" x="685" y="796.5859"/><text fill="#000000" font-family="sans-serif" font-size="14" lengthAdjust="spacing" textLength="99" x="697" y="802.9326">int quantidade</text><line style="stroke:#181818;stroke-width:0.5;" x1="678" x2="931" y1="810.2344" y2="810.2344"/><ellipse cx="688" cy="823.8828" fill="#84BE84" rx="3" ry="3" style="stroke:#038048;stroke-width:1.0;"/><text fill="#000000" font-family="sans-serif" font-size="14" lengthAdjust="spacing" textLength="229" x="697" y="827.2295">adicionarEstoque(int quantidade)</text><ellipse cx="688" cy="840.1797" fill="#84BE84" rx="3" ry="3" style="stroke:#038048;stroke-width:1.0;"/><text fill="#000000" font-family="sans-serif" font-size="14" lengthAdjust="spacing" textLength="224" x="697" y="843.5264">removerEstoque(int quantidade)</text></g><!--class Unidade--><g id="elem_Unidade"><rect codeLine="16" fill="#F1F1F1" height="96.8906" id="Unidade" rx="2.5" ry="2.5" style="stroke:#181818;stroke-width:0.5;" width="137" x="747" y="7"/><ellipse cx="783.6" cy="23" fill="#ADD1B2" rx="11" ry="11" style="stroke:#181818;stroke-width:1.0;"/><path d="M786.5688,28.6406 Q785.9906,28.9375 785.35,29.0781 Q784.7094,29.2344 784.0063,29.2344 Q781.5063,29.2344 780.1781,27.5938 Q778.8656,25.9375 778.8656,22.8125 Q778.8656,19.6875 780.1781,18.0313 Q781.5063,16.375 784.0063,16.375 Q784.7094,16.375 785.35,16.5313 Q786.0063,16.6875 786.5688,16.9844 L786.5688,19.7031 Q785.9438,19.125 785.35,18.8594 Q784.7563,18.5781 784.1313,18.5781 Q782.7875,18.5781 782.1,19.6563 Q781.4125,20.7188 781.4125,22.8125 Q781.4125,24.9063 782.1,25.9844 Q782.7875,27.0469 784.1313,27.0469 Q784.7563,27.0469 785.35,26.7813 Q785.9438,26.5 786.5688,25.9219 L786.5688,28.6406 Z " fill="#000000"/><text fill="#000000" font-family="sans-serif" font-size="14" lengthAdjust="spacing" textLength="57" x="802.4" y="27.8467">Unidade</text><line style="stroke:#181818;stroke-width:0.5;" x1="748" x2="883" y1="39" y2="39"/><rect fill="none" height="6" style="stroke:#C82930;stroke-width:1.0;" width="6" x="755" y="49.6484"/><text fill="#000000" font-family="sans-serif" font-size="14" lengthAdjust="spacing" textLength="33" x="767" y="55.9951">int id</text><rect fill="none" height="6" style="stroke:#C82930;stroke-width:1.0;" width="6" x="755" y="65.9453"/><text fill="#000000" font-family="sans-serif" font-size="14" lengthAdjust="spacing" textLength="84" x="767" y="72.292">String nome</text><rect fill="none" height="6" style="stroke:#C82930;stroke-width:1.0;" width="6" x="755" y="82.2422"/><text fill="#000000" font-family="sans-serif" font-size="14" lengthAdjust="spacing" textLength="111" x="767" y="88.5889">String descricao</text><line style="stroke:#181818;stroke-width:0.5;" x1="748" x2="883" y1="95.8906" y2="95.8906"/></g><!--class Estoque--><g id="elem_Estoque"><rect codeLine="22" fill="#F1F1F1" height="145.7813" id="Estoque" rx="2.5" ry="2.5" style="stroke:#181818;stroke-width:0.5;" width="267" x="832" y="465.97"/><ellipse cx="932.25" cy="481.97" fill="#ADD1B2" rx="11" ry="11" style="stroke:#181818;stroke-width:1.0;"/><path d="M935.2188,487.6106 Q934.6406,487.9075 934,488.0481 Q933.3594,488.2044 932.6563,488.2044 Q930.1563,488.2044 928.8281,486.5638 Q927.5156,484.9075 927.5156,481.7825 Q927.5156,478.6575 928.8281,477.0013 Q930.1563,475.345 932.6563,475.345 Q933.3594,475.345 934,475.5013 Q934.6563,475.6575 935.2188,475.9544 L935.2188,478.6731 Q934.5938,478.095 934,477.8294 Q933.4063,477.5481 932.7813,477.5481 Q931.4375,477.5481 930.75,478.6263 Q930.0625,479.6888 930.0625,481.7825 Q930.0625,483.8763 930.75,484.9544 Q931.4375,486.0169 932.7813,486.0169 Q933.4063,486.0169 934,485.7513 Q934.5938,485.47 935.2188,484.8919 L935.2188,487.6106 Z " fill="#000000"/><text fill="#000000" font-family="sans-serif" font-size="14" lengthAdjust="spacing" textLength="58" x="952.75" y="486.8167">Estoque</text><line style="stroke:#181818;stroke-width:0.5;" x1="833" x2="1098" y1="497.97" y2="497.97"/><rect fill="none" height="6" style="stroke:#C82930;stroke-width:1.0;" width="6" x="840" y="508.6184"/><text fill="#000000" font-family="sans-serif" font-size="14" lengthAdjust="spacing" textLength="33" x="852" y="514.9651">int id</text><rect fill="none" height="6" style="stroke:#C82930;stroke-width:1.0;" width="6" x="840" y="524.9153"/><text fill="#000000" font-family="sans-serif" font-size="14" lengthAdjust="spacing" textLength="119" x="852" y="531.262">String localizacao</text><ellipse cx="843" cy="544.2122" fill="none" rx="3" ry="3" style="stroke:#038048;stroke-width:1.0;"/><text fill="#000000" font-family="sans-serif" font-size="14" lengthAdjust="spacing" textLength="169" x="852" y="547.5589">List&lt;Produto&gt; produtos</text><line style="stroke:#181818;stroke-width:0.5;" x1="833" x2="1098" y1="554.8606" y2="554.8606"/><ellipse cx="843" cy="568.5091" fill="#84BE84" rx="3" ry="3" style="stroke:#038048;stroke-width:1.0;"/><text fill="#000000" font-family="sans-serif" font-size="14" lengthAdjust="spacing" textLength="241" x="852" y="571.8557">adicionarProduto(Produto produto)</text><ellipse cx="843" cy="584.8059" fill="#84BE84" rx="3" ry="3" style="stroke:#038048;stroke-width:1.0;"/><text fill="#000000" font-family="sans-serif" font-size="14" lengthAdjust="spacing" textLength="236" x="852" y="588.1526">removerProduto(Produto produto)</text><ellipse cx="843" cy="601.1028" fill="#84BE84" rx="3" ry="3" style="stroke:#038048;stroke-width:1.0;"/><text fill="#000000" font-family="sans-serif" font-size="14" lengthAdjust="spacing" textLength="199" x="852" y="604.4495">obterProduto(int id): Produto</text></g><!--class CentroDistribuicao--><g id="elem_CentroDistribuicao"><rect codeLine="31" fill="#F1F1F1" height="162.0781" id="CentroDistribuicao" rx="2.5" ry="2.5" style="stroke:#181818;stroke-width:0.5;" width="276" x="390.5" y="226.89"/><ellipse cx="460.25" cy="242.89" fill="#ADD1B2" rx="11" ry="11" style="stroke:#181818;stroke-width:1.0;"/><path d="M463.2188,248.5306 Q462.6406,248.8275 462,248.9681 Q461.3594,249.1244 460.6563,249.1244 Q458.1563,249.1244 456.8281,247.4838 Q455.5156,245.8275 455.5156,242.7025 Q455.5156,239.5775 456.8281,237.9213 Q458.1563,236.265 460.6563,236.265 Q461.3594,236.265 462,236.4213 Q462.6563,236.5775 463.2188,236.8744 L463.2188,239.5931 Q462.5938,239.015 462,238.7494 Q461.4063,238.4681 460.7813,238.4681 Q459.4375,238.4681 458.75,239.5463 Q458.0625,240.6088 458.0625,242.7025 Q458.0625,244.7963 458.75,245.8744 Q459.4375,246.9369 460.7813,246.9369 Q461.4063,246.9369 462,246.6713 Q462.5938,246.39 463.2188,245.8119 L463.2188,248.5306 Z " fill="#000000"/><text fill="#000000" font-family="sans-serif" font-size="14" lengthAdjust="spacing" textLength="128" x="480.75" y="247.7367">CentroDistribuicao</text><line style="stroke:#181818;stroke-width:0.5;" x1="391.5" x2="665.5" y1="258.89" y2="258.89"/><rect fill="none" height="6" style="stroke:#C82930;stroke-width:1.0;" width="6" x="398.5" y="269.5384"/><text fill="#000000" font-family="sans-serif" font-size="14" lengthAdjust="spacing" textLength="33" x="410.5" y="275.8851">int id</text><rect fill="none" height="6" style="stroke:#C82930;stroke-width:1.0;" width="6" x="398.5" y="285.8353"/><text fill="#000000" font-family="sans-serif" font-size="14" lengthAdjust="spacing" textLength="84" x="410.5" y="292.182">String nome</text><rect fill="none" height="6" style="stroke:#C82930;stroke-width:1.0;" width="6" x="398.5" y="302.1322"/><text fill="#000000" font-family="sans-serif" font-size="14" lengthAdjust="spacing" textLength="119" x="410.5" y="308.4789">String localizacao</text><ellipse cx="401.5" cy="321.4291" fill="none" rx="3" ry="3" style="stroke:#038048;stroke-width:1.0;"/><text fill="#000000" font-family="sans-serif" font-size="14" lengthAdjust="spacing" textLength="175" x="410.5" y="324.7757">List&lt;Estoque&gt; estoques</text><ellipse cx="401.5" cy="337.7259" fill="none" rx="3" ry="3" style="stroke:#038048;stroke-width:1.0;"/><text fill="#000000" font-family="sans-serif" font-size="14" lengthAdjust="spacing" textLength="202" x="410.5" y="341.0726">List&lt;Fornecedo&gt; fornecedor</text><line style="stroke:#181818;stroke-width:0.5;" x1="391.5" x2="665.5" y1="348.3744" y2="348.3744"/><ellipse cx="401.5" cy="362.0228" fill="#84BE84" rx="3" ry="3" style="stroke:#038048;stroke-width:1.0;"/><text fill="#000000" font-family="sans-serif" font-size="14" lengthAdjust="spacing" textLength="250" x="410.5" y="365.3695">adicionarEstoque(Estoque estoque)</text><ellipse cx="401.5" cy="378.3197" fill="#84BE84" rx="3" ry="3" style="stroke:#038048;stroke-width:1.0;"/><text fill="#000000" font-family="sans-serif" font-size="14" lengthAdjust="spacing" textLength="245" x="410.5" y="381.6664">removerEstoque(Estoque estoque)</text></g><!--class PedidoCompra--><g id="elem_PedidoCompra"><rect codeLine="41" fill="#F1F1F1" height="145.7813" id="PedidoCompra" rx="2.5" ry="2.5" style="stroke:#181818;stroke-width:0.5;" width="349" x="7" y="235.04"/><ellipse cx="126.25" cy="251.04" fill="#ADD1B2" rx="11" ry="11" style="stroke:#181818;stroke-width:1.0;"/><path d="M129.2188,256.6806 Q128.6406,256.9775 128,257.1181 Q127.3594,257.2744 126.6563,257.2744 Q124.1563,257.2744 122.8281,255.6338 Q121.5156,253.9775 121.5156,250.8525 Q121.5156,247.7275 122.8281,246.0713 Q124.1563,244.415 126.6563,244.415 Q127.3594,244.415 128,244.5713 Q128.6563,244.7275 129.2188,245.0244 L129.2188,247.7431 Q128.5938,247.165 128,246.8994 Q127.4063,246.6181 126.7813,246.6181 Q125.4375,246.6181 124.75,247.6963 Q124.0625,248.7588 124.0625,250.8525 Q124.0625,252.9463 124.75,254.0244 Q125.4375,255.0869 126.7813,255.0869 Q127.4063,255.0869 128,254.8213 Q128.5938,254.54 129.2188,253.9619 L129.2188,256.6806 Z " fill="#000000"/><text fill="#000000" font-family="sans-serif" font-size="14" lengthAdjust="spacing" textLength="102" x="146.75" y="255.8867">PedidoCompra</text><line style="stroke:#181818;stroke-width:0.5;" x1="8" x2="355" y1="267.04" y2="267.04"/><rect fill="none" height="6" style="stroke:#C82930;stroke-width:1.0;" width="6" x="15" y="277.6884"/><text fill="#000000" font-family="sans-serif" font-size="14" lengthAdjust="spacing" textLength="33" x="27" y="284.0351">int id</text><rect fill="none" height="6" style="stroke:#C82930;stroke-width:1.0;" width="6" x="15" y="293.9853"/><text fill="#000000" font-family="sans-serif" font-size="14" lengthAdjust="spacing" textLength="67" x="27" y="300.332">Date data</text><ellipse cx="18" cy="313.2822" fill="none" rx="3" ry="3" style="stroke:#038048;stroke-width:1.0;"/><text fill="#000000" font-family="sans-serif" font-size="14" lengthAdjust="spacing" textLength="163" x="27" y="316.6289">List&lt;ItemPedido&gt; itens</text><line style="stroke:#181818;stroke-width:0.5;" x1="8" x2="355" y1="323.9306" y2="323.9306"/><ellipse cx="18" cy="337.5791" fill="#84BE84" rx="3" ry="3" style="stroke:#038048;stroke-width:1.0;"/><text fill="#000000" font-family="sans-serif" font-size="14" lengthAdjust="spacing" textLength="323" x="27" y="340.9257">adicionarItem(Produto produto, int quantidade)</text><ellipse cx="18" cy="353.8759" fill="#84BE84" rx="3" ry="3" style="stroke:#038048;stroke-width:1.0;"/><text fill="#000000" font-family="sans-serif" font-size="14" lengthAdjust="spacing" textLength="211" x="27" y="357.2226">removerItem(Produto produto)</text><ellipse cx="18" cy="370.1728" fill="#84BE84" rx="3" ry="3" style="stroke:#038048;stroke-width:1.0;"/><text fill="#000000" font-family="sans-serif" font-size="14" lengthAdjust="spacing" textLength="153" x="27" y="373.5195">calcularTotal(): double</text></g><!--class SolicitacaoTransferencia--><g id="elem_SolicitacaoTransferencia"><rect codeLine="50" fill="#F1F1F1" height="162.0781" id="SolicitacaoTransferencia" rx="2.5" ry="2.5" style="stroke:#181818;stroke-width:0.5;" width="349" x="701" y="226.89"/><ellipse cx="787.75" cy="242.89" fill="#ADD1B2" rx="11" ry="11" style="stroke:#181818;stroke-width:1.0;"/><path d="M790.7188,248.5306 Q790.1406,248.8275 789.5,248.9681 Q788.8594,249.1244 788.1563,249.1244 Q785.6563,249.1244 784.3281,247.4838 Q783.0156,245.8275 783.0156,242.7025 Q783.0156,239.5775 784.3281,237.9213 Q785.6563,236.265 788.1563,236.265 Q788.8594,236.265 789.5,236.4213 Q790.1563,236.5775 790.7188,236.8744 L790.7188,239.5931 Q790.0938,239.015 789.5,238.7494 Q788.9063,238.4681 788.2813,238.4681 Q786.9375,238.4681 786.25,239.5463 Q785.5625,240.6088 785.5625,242.7025 Q785.5625,244.7963 786.25,245.8744 Q786.9375,246.9369 788.2813,246.9369 Q788.9063,246.9369 789.5,246.6713 Q790.0938,246.39 790.7188,245.8119 L790.7188,248.5306 Z " fill="#000000"/><text fill="#000000" font-family="sans-serif" font-size="14" lengthAdjust="spacing" textLength="167" x="808.25" y="247.7367">SolicitacaoTransferencia</text><line style="stroke:#181818;stroke-width:0.5;" x1="702" x2="1049" y1="258.89" y2="258.89"/><rect fill="none" height="6" style="stroke:#C82930;stroke-width:1.0;" width="6" x="709" y="269.5384"/><text fill="#000000" font-family="sans-serif" font-size="14" lengthAdjust="spacing" textLength="33" x="721" y="275.8851">int id</text><rect fill="none" height="6" style="stroke:#C82930;stroke-width:1.0;" width="6" x="709" y="285.8353"/><text fill="#000000" font-family="sans-serif" font-size="14" lengthAdjust="spacing" textLength="170" x="721" y="292.182">Estoque estoqueOrigem</text><rect fill="none" height="6" style="stroke:#C82930;stroke-width:1.0;" width="6" x="709" y="302.1322"/><text fill="#000000" font-family="sans-serif" font-size="14" lengthAdjust="spacing" textLength="174" x="721" y="308.4789">Estoque estoqueDestino</text><rect fill="none" height="6" style="stroke:#C82930;stroke-width:1.0;" width="6" x="709" y="318.4291"/><text fill="#000000" font-family="sans-serif" font-size="14" lengthAdjust="spacing" textLength="67" x="721" y="324.7757">Date data</text><rect fill="none" height="6" style="stroke:#C82930;stroke-width:1.0;" width="6" x="709" y="334.7259"/><text fill="#000000" font-family="sans-serif" font-size="14" lengthAdjust="spacing" textLength="163" x="721" y="341.0726">List&lt;ItemPedido&gt; itens</text><line style="stroke:#181818;stroke-width:0.5;" x1="702" x2="1049" y1="348.3744" y2="348.3744"/><ellipse cx="712" cy="362.0228" fill="#84BE84" rx="3" ry="3" style="stroke:#038048;stroke-width:1.0;"/><text fill="#000000" font-family="sans-serif" font-size="14" lengthAdjust="spacing" textLength="323" x="721" y="365.3695">adicionarItem(Produto produto, int quantidade)</text><ellipse cx="712" cy="378.3197" fill="#84BE84" rx="3" ry="3" style="stroke:#038048;stroke-width:1.0;"/><text fill="#000000" font-family="sans-serif" font-size="14" lengthAdjust="spacing" textLength="211" x="721" y="381.6664">removerItem(Produto produto)</text></g><!--class Conferencia--><g id="elem_Conferencia"><rect codeLine="60" fill="#F1F1F1" height="145.7813" id="Conferencia" rx="2.5" ry="2.5" style="stroke:#181818;stroke-width:0.5;" width="270" x="1155.5" y="235.04"/><ellipse cx="1244.75" cy="251.04" fill="#ADD1B2" rx="11" ry="11" style="stroke:#181818;stroke-width:1.0;"/><path d="M1247.7188,256.6806 Q1247.1406,256.9775 1246.5,257.1181 Q1245.8594,257.2744 1245.1563,257.2744 Q1242.6563,257.2744 1241.3281,255.6338 Q1240.0156,253.9775 1240.0156,250.8525 Q1240.0156,247.7275 1241.3281,246.0713 Q1242.6563,244.415 1245.1563,244.415 Q1245.8594,244.415 1246.5,244.5713 Q1247.1563,244.7275 1247.7188,245.0244 L1247.7188,247.7431 Q1247.0938,247.165 1246.5,246.8994 Q1245.9063,246.6181 1245.2813,246.6181 Q1243.9375,246.6181 1243.25,247.6963 Q1242.5625,248.7588 1242.5625,250.8525 Q1242.5625,252.9463 1243.25,254.0244 Q1243.9375,255.0869 1245.2813,255.0869 Q1245.9063,255.0869 1246.5,254.8213 Q1247.0938,254.54 1247.7188,253.9619 L1247.7188,256.6806 Z " fill="#000000"/><text fill="#000000" font-family="sans-serif" font-size="14" lengthAdjust="spacing" textLength="83" x="1265.25" y="255.8867">Conferencia</text><line style="stroke:#181818;stroke-width:0.5;" x1="1156.5" x2="1424.5" y1="267.04" y2="267.04"/><rect fill="none" height="6" style="stroke:#C82930;stroke-width:1.0;" width="6" x="1163.5" y="277.6884"/><text fill="#000000" font-family="sans-serif" font-size="14" lengthAdjust="spacing" textLength="33" x="1175.5" y="284.0351">int id</text><rect fill="none" height="6" style="stroke:#C82930;stroke-width:1.0;" width="6" x="1163.5" y="293.9853"/><text fill="#000000" font-family="sans-serif" font-size="14" lengthAdjust="spacing" textLength="120" x="1175.5" y="300.332">Estoque estoque</text><rect fill="none" height="6" style="stroke:#C82930;stroke-width:1.0;" width="6" x="1163.5" y="310.2822"/><text fill="#000000" font-family="sans-serif" font-size="14" lengthAdjust="spacing" textLength="67" x="1175.5" y="316.6289">Date data</text><ellipse cx="1166.5" cy="329.5791" fill="none" rx="3" ry="3" style="stroke:#038048;stroke-width:1.0;"/><text fill="#000000" font-family="sans-serif" font-size="14" lengthAdjust="spacing" textLength="244" x="1175.5" y="332.9257">List&lt;Produto&gt; produtosConferidos</text><line style="stroke:#181818;stroke-width:0.5;" x1="1156.5" x2="1424.5" y1="340.2275" y2="340.2275"/><ellipse cx="1166.5" cy="353.8759" fill="#84BE84" rx="3" ry="3" style="stroke:#038048;stroke-width:1.0;"/><text fill="#000000" font-family="sans-serif" font-size="14" lengthAdjust="spacing" textLength="241" x="1175.5" y="357.2226">adicionarProduto(Produto produto)</text><ellipse cx="1166.5" cy="370.1728" fill="#84BE84" rx="3" ry="3" style="stroke:#038048;stroke-width:1.0;"/><text fill="#000000" font-family="sans-serif" font-size="14" lengthAdjust="spacing" textLength="236" x="1175.5" y="373.5195">removerProduto(Produto produto)</text></g><!--class ItemPedido--><g id="elem_ItemPedido"><rect codeLine="69" fill="#F1F1F1" height="96.8906" id="ItemPedido" rx="2.5" ry="2.5" style="stroke:#181818;stroke-width:0.5;" width="202" x="594.5" y="490.42"/><ellipse cx="652.25" cy="506.42" fill="#ADD1B2" rx="11" ry="11" style="stroke:#181818;stroke-width:1.0;"/><path d="M655.2188,512.0606 Q654.6406,512.3575 654,512.4981 Q653.3594,512.6544 652.6563,512.6544 Q650.1563,512.6544 648.8281,511.0138 Q647.5156,509.3575 647.5156,506.2325 Q647.5156,503.1075 648.8281,501.4513 Q650.1563,499.795 652.6563,499.795 Q653.3594,499.795 654,499.9513 Q654.6563,500.1075 655.2188,500.4044 L655.2188,503.1231 Q654.5938,502.545 654,502.2794 Q653.4063,501.9981 652.7813,501.9981 Q651.4375,501.9981 650.75,503.0763 Q650.0625,504.1388 650.0625,506.2325 Q650.0625,508.3263 650.75,509.4044 Q651.4375,510.4669 652.7813,510.4669 Q653.4063,510.4669 654,510.2013 Q654.5938,509.92 655.2188,509.3419 L655.2188,512.0606 Z " fill="#000000"/><text fill="#000000" font-family="sans-serif" font-size="14" lengthAdjust="spacing" textLength="78" x="672.75" y="511.2667">ItemPedido</text><line style="stroke:#181818;stroke-width:0.5;" x1="595.5" x2="795.5" y1="522.42" y2="522.42"/><rect fill="none" height="6" style="stroke:#C82930;stroke-width:1.0;" width="6" x="602.5" y="533.0684"/><text fill="#000000" font-family="sans-serif" font-size="14" lengthAdjust="spacing" textLength="99" x="614.5" y="539.4151">int quantidade</text><rect fill="none" height="6" style="stroke:#C82930;stroke-width:1.0;" width="6" x="602.5" y="549.3653"/><text fill="#000000" font-family="sans-serif" font-size="14" lengthAdjust="spacing" textLength="114" x="614.5" y="555.712">Produto produto</text><line style="stroke:#181818;stroke-width:0.5;" x1="595.5" x2="795.5" y1="563.0138" y2="563.0138"/><ellipse cx="605.5" cy="576.6622" fill="#84BE84" rx="3" ry="3" style="stroke:#038048;stroke-width:1.0;"/><text fill="#000000" font-family="sans-serif" font-size="14" lengthAdjust="spacing" textLength="176" x="614.5" y="580.0089">calcularSubtotal(): double</text></g><!--class TransferenciaEstoqueService--><g id="elem_TransferenciaEstoqueService"><rect codeLine="75" fill="#F1F1F1" height="64.2969" id="TransferenciaEstoqueService" rx="2.5" ry="2.5" style="stroke:#181818;stroke-width:0.5;" width="435" x="919" y="23.3"/><ellipse cx="1031.25" cy="39.3" fill="#ADD1B2" rx="11" ry="11" style="stroke:#181818;stroke-width:1.0;"/><path d="M1034.2188,44.9406 Q1033.6406,45.2375 1033,45.3781 Q1032.3594,45.5344 1031.6563,45.5344 Q1029.1563,45.5344 1027.8281,43.8938 Q1026.5156,42.2375 1026.5156,39.1125 Q1026.5156,35.9875 1027.8281,34.3313 Q1029.1563,32.675 1031.6563,32.675 Q1032.3594,32.675 1033,32.8313 Q1033.6563,32.9875 1034.2188,33.2844 L1034.2188,36.0031 Q1033.5938,35.425 1033,35.1594 Q1032.4063,34.8781 1031.7813,34.8781 Q1030.4375,34.8781 1029.75,35.9563 Q1029.0625,37.0188 1029.0625,39.1125 Q1029.0625,41.2063 1029.75,42.2844 Q1030.4375,43.3469 1031.7813,43.3469 Q1032.4063,43.3469 1033,43.0813 Q1033.5938,42.8 1034.2188,42.2219 L1034.2188,44.9406 Z " fill="#000000"/><text fill="#000000" font-family="sans-serif" font-size="14" lengthAdjust="spacing" textLength="202" x="1051.75" y="44.1467">TransferenciaEstoqueService</text><line style="stroke:#181818;stroke-width:0.5;" x1="920" x2="1353" y1="55.3" y2="55.3"/><line style="stroke:#181818;stroke-width:0.5;" x1="920" x2="1353" y1="63.3" y2="63.3"/><ellipse cx="930" cy="76.9484" fill="#84BE84" rx="3" ry="3" style="stroke:#038048;stroke-width:1.0;"/><text fill="#000000" font-family="sans-serif" font-size="14" lengthAdjust="spacing" textLength="409" x="939" y="80.2951">transferirEstoque(SolicitacaoTransferencia solicitacao): void</text></g><!--class Fornecedor--><g id="elem_Fornecedor"><rect fill="#F1F1F1" height="48" id="Fornecedor" rx="2.5" ry="2.5" style="stroke:#181818;stroke-width:0.5;" width="112" x="392.5" y="927.83"/><ellipse cx="407.5" cy="943.83" fill="#ADD1B2" rx="11" ry="11" style="stroke:#181818;stroke-width:1.0;"/><path d="M410.4688,949.4706 Q409.8906,949.7675 409.25,949.9081 Q408.6094,950.0644 407.9063,950.0644 Q405.4063,950.0644 404.0781,948.4238 Q402.7656,946.7675 402.7656,943.6425 Q402.7656,940.5175 404.0781,938.8613 Q405.4063,937.205 407.9063,937.205 Q408.6094,937.205 409.25,937.3613 Q409.9063,937.5175 410.4688,937.8144 L410.4688,940.5331 Q409.8438,939.955 409.25,939.6894 Q408.6563,939.4081 408.0313,939.4081 Q406.6875,939.4081 406,940.4863 Q405.3125,941.5488 405.3125,943.6425 Q405.3125,945.7363 406,946.8144 Q406.6875,947.8769 408.0313,947.8769 Q408.6563,947.8769 409.25,947.6113 Q409.8438,947.33 410.4688,946.7519 L410.4688,949.4706 Z " fill="#000000"/><text fill="#000000" font-family="sans-serif" font-size="14" lengthAdjust="spacing" textLength="80" x="421.5" y="948.6767">Fornecedor</text><line style="stroke:#181818;stroke-width:0.5;" x1="393.5" x2="503.5" y1="959.83" y2="959.83"/><line style="stroke:#181818;stroke-width:0.5;" x1="393.5" x2="503.5" y1="967.83" y2="967.83"/></g><!--link CentroDistribuicao to Estoque--><g id="link_CentroDistribuicao_Estoque"><path codeLine="79" d="M575.2,389.39 C589.19,407.29 606.08,424.38 625.5,435.97 C698.53,479.56 733.27,440.76 814.5,465.97 C820.18,467.73 820.2878,467.639 826.0378,469.719 " fill="none" id="CentroDistribuicao-to-Estoque" style="stroke:#181818;stroke-width:1.0;"/><polygon fill="#181818" points="831.68,471.76,824.5774,464.937,826.9782,470.0592,821.856,472.46,831.68,471.76" style="stroke:#181818;stroke-width:1.0;"/><polygon fill="#000000" points="635.2618,429.0613,627.544,423.5038,625.7513,429.1016,635.2618,429.0613" style="stroke:#000000;stroke-width:1.0;"/><text fill="#000000" font-family="sans-serif" font-size="13" lengthAdjust="spacing" textLength="69" x="639.5" y="432.0369">supervisao</text><text fill="#000000" font-family="sans-serif" font-size="13" lengthAdjust="spacing" textLength="8" x="570.8695" y="409.1077">1</text><text fill="#000000" font-family="sans-serif" font-size="13" lengthAdjust="spacing" textLength="23" x="801.1869" y="464.9837">0..*</text></g><!--reverse link CentroDistribuicao to Fornecedor--><g id="link_CentroDistribuicao_Fornecedor"><path codeLine="80" d="M449.5655,399.4675 C443.8155,409.0075 445.06,408.73 441.5,418.97 C376.7,605.42 424.99,851.3 442.7,927.39 " fill="none" id="CentroDistribuicao-backto-Fornecedor" style="stroke:#181818;stroke-width:1.0;"/><polygon fill="#181818" points="455.76,389.19,449.2369,392.2639,449.5655,399.4675,456.0886,396.3936,455.76,389.19" style="stroke:#181818;stroke-width:1.0;"/></g><!--link Estoque to Produto--><g id="link_Estoque_Produto"><path codeLine="81" d="M914.78,611.98 C897.73,636.23 882.052,658.5225 864.572,683.3725 " fill="none" id="Estoque-to-Produto" style="stroke:#181818;stroke-width:1.0;"/><polygon fill="#181818" points="861.12,688.28,869.5697,683.2201,863.9967,684.1904,863.0264,678.6174,861.12,688.28" style="stroke:#181818;stroke-width:1.0;"/><polygon fill="#000000" points="891.6237,654.4063,899.2309,648.6983,894.423,645.317,891.6237,654.4063" style="stroke:#000000;stroke-width:1.0;"/><text fill="#000000" font-family="sans-serif" font-size="13" lengthAdjust="spacing" textLength="49" x="903.5" y="654.8169">cont&#233;m</text><text fill="#000000" font-family="sans-serif" font-size="13" lengthAdjust="spacing" textLength="8" x="901.5645" y="631.7373">1</text><text fill="#000000" font-family="sans-serif" font-size="13" lengthAdjust="spacing" textLength="23" x="841.9975" y="677.7034">0..*</text></g><!--link PedidoCompra to ItemPedido--><g id="link_PedidoCompra_ItemPedido"><path codeLine="82" d="M343.78,381.21 C425.86,417.77 517.4388,458.5594 588.7888,490.3294 " fill="none" id="PedidoCompra-to-ItemPedido" style="stroke:#181818;stroke-width:1.0;"/><polygon fill="#181818" points="594.27,492.77,587.6753,485.455,589.7023,490.7362,584.4211,492.7632,594.27,492.77" style="stroke:#181818;stroke-width:1.0;"/><polygon fill="#000000" points="464.0675,429.5706,457.0005,423.206,454.6091,428.5754,464.0675,429.5706" style="stroke:#000000;stroke-width:1.0;"/><text fill="#000000" font-family="sans-serif" font-size="13" lengthAdjust="spacing" textLength="49" x="468.5" y="432.0369">cont&#233;m</text><text fill="#000000" font-family="sans-serif" font-size="13" lengthAdjust="spacing" textLength="8" x="350.8661" y="400.9825">1</text><text fill="#000000" font-family="sans-serif" font-size="13" lengthAdjust="spacing" textLength="23" x="563.3437" y="486.0731">0..*</text></g><!--link ItemPedido to Produto--><g id="link_ItemPedido_Produto"><path codeLine="83" d="M718.22,587.57 C732.13,616.8 747.7106,649.5227 763.7806,683.2727 " fill="none" id="ItemPedido-to-Produto" style="stroke:#181818;stroke-width:1.0;"/><polygon fill="#181818" points="766.36,688.69,766.1024,678.8445,764.2105,684.1756,758.8794,682.2837,766.36,688.69" style="stroke:#181818;stroke-width:1.0;"/><polygon fill="#000000" points="757.6492,654.8309,756.4148,645.4008,751.1077,647.9273,757.6492,654.8309" style="stroke:#000000;stroke-width:1.0;"/><text fill="#000000" font-family="sans-serif" font-size="13" lengthAdjust="spacing" textLength="58" x="764.5" y="654.8169">refere-se</text><text fill="#000000" font-family="sans-serif" font-size="13" lengthAdjust="spacing" textLength="8" x="712.8525" y="607.55">1</text><text fill="#000000" font-family="sans-serif" font-size="13" lengthAdjust="spacing" textLength="8" x="754.4752" y="677.5953">1</text></g><!--link SolicitacaoTransferencia to ItemPedido--><g id="link_SolicitacaoTransferencia_ItemPedido"><path codeLine="84" d="M750.4,389.21 C741.12,398.45 732.62,408.39 725.5,418.97 C711.41,439.9 704.9606,461.0074 700.9906,484.0074 " fill="none" id="SolicitacaoTransferencia-to-ItemPedido" style="stroke:#181818;stroke-width:1.0;"/><polygon fill="#181818" points="699.97,489.92,705.4426,481.7315,700.8205,484.9929,697.5591,480.3708,699.97,489.92" style="stroke:#181818;stroke-width:1.0;"/><polygon fill="#000000" points="728.189,431.9703,734.9758,425.3077,729.7635,422.591,728.189,431.9703" style="stroke:#000000;stroke-width:1.0;"/><text fill="#000000" font-family="sans-serif" font-size="13" lengthAdjust="spacing" textLength="49" x="739.5" y="432.0369">cont&#233;m</text><text fill="#000000" font-family="sans-serif" font-size="13" lengthAdjust="spacing" textLength="8" x="731.3055" y="408.9122">1</text><text fill="#000000" font-family="sans-serif" font-size="13" lengthAdjust="spacing" textLength="23" x="676.0253" y="479.411">0..*</text></g><!--link SolicitacaoTransferencia to Estoque--><g id="link_SolicitacaoTransferencia_Estoque"><path codeLine="85" d="M914.06,389.29 C918.43,399.21 922.68,409.27 926.5,418.97 C932.4,433.93 936.2393,444.479 941.4293,460.019 " fill="none" id="SolicitacaoTransferencia-to-Estoque" style="stroke:#181818;stroke-width:1.0;"/><polygon fill="#181818" points="943.33,465.71,944.273,455.9064,941.7461,460.9675,936.685,458.4406,943.33,465.71" style="stroke:#181818;stroke-width:1.0;"/><polygon fill="#000000" points="939.3044,432.1995,938.7811,422.7033,933.2993,424.8245,939.3044,432.1995" style="stroke:#000000;stroke-width:1.0;"/><text fill="#000000" font-family="sans-serif" font-size="13" lengthAdjust="spacing" textLength="99" x="946.5" y="432.0369">estoqueOrigem</text><text fill="#000000" font-family="sans-serif" font-size="13" lengthAdjust="spacing" textLength="8" x="909.03" y="408.9991">1</text><text fill="#000000" font-family="sans-serif" font-size="13" lengthAdjust="spacing" textLength="8" x="932.7539" y="454.8444">1</text></g><!--link SolicitacaoTransferencia to Estoque--><g id="link_SolicitacaoTransferencia_Estoque"><path codeLine="86" d="M801.65,389.36 C795.34,404.79 794.12,420.84 802.5,435.97 C810.02,449.54 815.7512,457.513 827.3512,468.063 " fill="none" id="SolicitacaoTransferencia-to-Estoque-1" style="stroke:#181818;stroke-width:1.0;"/><polygon fill="#181818" points="831.79,472.1,827.8232,463.0853,828.091,468.7358,822.4405,469.0037,831.79,472.1" style="stroke:#181818;stroke-width:1.0;"/><polygon fill="#000000" points="809.0521,432.2894,809.038,422.7788,803.4506,424.6035,809.0521,432.2894" style="stroke:#000000;stroke-width:1.0;"/><text fill="#000000" font-family="sans-serif" font-size="13" lengthAdjust="spacing" textLength="101" x="816.5" y="432.0369">estoqueDestino</text><text fill="#000000" font-family="sans-serif" font-size="13" lengthAdjust="spacing" textLength="8" x="786.9598" y="409.0751">1</text><text fill="#000000" font-family="sans-serif" font-size="13" lengthAdjust="spacing" textLength="8" x="815.8286" y="480.7447">1</text></g><!--reverse link Unidade to Estoque--><g id="link_Unidade_Estoque"><path codeLine="87" d="M894.3947,104.5638 C965.4447,148.5238 1057.27,207.62 1067.5,226.89 C1111.16,309.13 1098.64,353.99 1054.5,435.97 C1049.04,446.1 1042.42,456.09 1035.26,465.62 " fill="none" id="Unidade-backto-Estoque" style="stroke:#181818;stroke-width:1.0;"/><polygon fill="#181818" points="884.19,98.25,887.1877,104.8085,894.3947,104.5638,891.397,98.0054,884.19,98.25" style="stroke:#181818;stroke-width:1.0;"/></g><!--reverse link Unidade to CentroDistribuicao--><g id="link_Unidade_CentroDistribuicao"><path codeLine="88" d="M751.7989,112.0404 C712.1989,146.6004 666.75,186.27 620.5,226.64 " fill="none" id="Unidade-backto-CentroDistribuicao" style="stroke:#181818;stroke-width:1.0;"/><polygon fill="#181818" points="760.84,104.15,753.6893,105.0815,751.7989,112.0404,758.9496,111.1089,760.84,104.15" style="stroke:#181818;stroke-width:1.0;"/></g><!--link Produto to Fornecedor--><g id="link_Produto_Fornecedor"><path codeLine="89" d="M676.73,835.41 C613.31,867.48 545.9842,901.5321 500.0142,924.7821 " fill="none" id="Produto-to-Fornecedor" style="stroke:#181818;stroke-width:1.0;"/><polygon fill="#181818" points="494.66,927.49,504.4965,926.9975,499.1218,925.2334,500.8859,919.8586,494.66,927.49" style="stroke:#181818;stroke-width:1.0;"/><polygon fill="#000000" points="585.0382,891.6529,594.4361,890.1934,591.7834,884.9482,585.0382,891.6529" style="stroke:#000000;stroke-width:1.0;"/><text fill="#000000" font-family="sans-serif" font-size="13" lengthAdjust="spacing" textLength="84" x="598.5" y="893.8969">fornecido por</text><text fill="#000000" font-family="sans-serif" font-size="13" lengthAdjust="spacing" textLength="23" x="646.1137" y="835.659">0..*</text><text fill="#000000" font-family="sans-serif" font-size="13" lengthAdjust="spacing" textLength="8" x="496.9365" y="916.8121">1</text></g><!--link Conferencia to Estoque--><g id="link_Conferencia_Estoque"><path codeLine="90" d="M1201.81,381.22 C1178.35,399.59 1152.78,418.93 1128.5,435.97 C1114.43,445.84 1104.4668,452.6095 1089.4668,462.3195 " fill="none" id="Conferencia-to-Estoque" style="stroke:#181818;stroke-width:1.0;"/><polygon fill="#181818" points="1084.43,465.58,1094.1588,464.0471,1088.6273,462.8629,1089.8115,457.3314,1084.43,465.58" style="stroke:#181818;stroke-width:1.0;"/><polygon fill="#000000" points="1151.446,430.463,1160.5,427.5517,1157.0596,422.7859,1151.446,430.463" style="stroke:#000000;stroke-width:1.0;"/><text fill="#000000" font-family="sans-serif" font-size="13" lengthAdjust="spacing" textLength="58" x="1164.5" y="432.0369">refere-se</text><text fill="#000000" font-family="sans-serif" font-size="13" lengthAdjust="spacing" textLength="8" x="1184.9755" y="400.9935">1</text><text fill="#000000" font-family="sans-serif" font-size="13" lengthAdjust="spacing" textLength="8" x="1087.3843" y="454.9538">1</text></g><!--link Conferencia to Produto--><g id="link_Conferencia_Produto"><path codeLine="91" d="M1264.42,381.32 C1236.86,448.82 1187.51,548.35 1116.5,611.75 C1063.12,659.41 998.1773,694.1189 937.7173,720.2589 " fill="none" id="Conferencia-to-Produto" style="stroke:#181818;stroke-width:1.0;"/><polygon fill="#181818" points="932.21,722.64,942.0584,722.7399,936.7994,720.6558,938.8836,715.3968,932.21,722.64" style="stroke:#181818;stroke-width:1.0;"/><polygon fill="#000000" points="1224.03,542.5263,1232.4232,538.0536,1228.1913,533.9744,1224.03,542.5263" style="stroke:#000000;stroke-width:1.0;"/><text fill="#000000" font-family="sans-serif" font-size="13" lengthAdjust="spacing" textLength="48" x="1236.5" y="543.4269">confere</text><text fill="#000000" font-family="sans-serif" font-size="13" lengthAdjust="spacing" textLength="8" x="1253.647" y="400.85">1</text><text fill="#000000" font-family="sans-serif" font-size="13" lengthAdjust="spacing" textLength="23" x="939.823" y="716.7219">0..*</text></g><!--SRC=[lLLBRjim4Dtx51DduyHLK2-wCGe1hIsv0OmuY1qKNTBYE20WaGv9UT6Y1-evUh5I5YbHikGqGL5lB77UVDwR6Ug2uevnXENjuilcMxHShhx2PHp5qImQNFYsnKCKtS7bh335JTFdvMDKMkAMq-hXqzqYEWRyO08EafGe1VTIq5mB-340ymk0SGsCsfUrbem_0HSPDayegaIoX0XxJ4M-JH7s4XFX1NhE2TUC4bgwZu5GbZ31YOoK5iyvZfgeAmkJc8a3ze9-kk8V-V7apSLNWMociu5IaP2KVIUEzHYMJEcFLi3Ga3y-g3PL2nWvfIsknVK5bDZg6bDMTpLrpQjvp91hAUQcBicsUS7nbThqaBJwX83bW_ADiP0S4wH6Wvrxb7qDTqhRG3qTFq5L3E-HCYfc8jjBqirjJZG29PhuDTvgp4hN49X6VjAb0j0M_nsS7Syk5mSnAYPvIkH6Q9AEJAlA3Qbvh4LgCkj2w8qaNErG8azO3wUM7Yl9dZ3hjitDF-EYKupWVujH3wRWhs9uhfSd6rS6DtJ-zUvLvTUADQfltMy1j2AqXc6TRtNVF3I6m8gnHdbWYRkLng0jXbLxqZj5gZQOP0TXT3QfEgw7uMG8GH32yFtDpVMmQiCKLBulqYk32RiShuC0gisNC72UhO1EaIaaWklVlp8JhR73BRodjE_Y7LSE4p-wn89xeD20UrNvkrmlkqzyeHex-MPtkxR6tttKZC21XJNEJdinS39ONYw9rvwflPeBhdlpRbhgRMHtPRwadUYE3XSW2Fy0]--></g></svg>